<?xml version="1.0" standalone="no"?>
<!DOCTYPE svg PUBLIC "-//W3C//DTD SVG 20010904//EN"
 "http://www.w3.org/TR/2001/REC-SVG-20010904/DTD/svg10.dtd">
<svg version="1.0" xmlns="http://www.w3.org/2000/svg"
 width="440.000000pt" height="440.000000pt" viewBox="0 0 440.000000 440.000000"
 preserveAspectRatio="xMidYMid meet">
<metadata>
Created by potrace 1.14, written by Peter Selinger 2001-2017
</metadata>
<g transform="translate(0.000000,440.000000) scale(0.100000,-0.100000)"
fill="#000000" stroke="none">
<path d="M3914 4365 c-8 -19 -17 -65 -22 -102 l-7 -68 -66 -7 c-36 -3 -95 -14
-130 -23 -85 -23 -249 -104 -325 -161 l-62 -45 -133 -4 c-105 -2 -155 -8 -230
-28 -175 -47 -335 -135 -445 -245 -102 -102 -156 -92 503 -92 318 0 764 -2
991 -4 l412 -5 0 409 0 410 -236 0 -235 0 -15 -35z"/>
<path d="M0 2769 l0 -569 700 0 c385 0 700 2 700 5 0 2 -12 40 -27 82 -24 70
-27 92 -28 218 0 150 17 229 71 336 12 26 20 49 17 53 -3 3 2 8 11 12 9 3 13
10 10 15 -3 5 0 9 6 9 6 0 9 4 5 9 -3 6 3 14 12 20 14 8 15 10 3 11 -12 0 -13
2 -1 9 9 6 10 11 2 15 -6 4 -11 2 -11 -4 0 -7 -7 -9 -16 -6 -14 5 -15 4 -4 -9
15 -18 0 -20 -19 -2 -11 10 -11 8 -2 -10 14 -27 14 -33 0 -33 -5 0 -7 5 -4 10
3 6 -1 10 -10 10 -9 0 -14 -4 -11 -8 2 -4 -4 -13 -14 -20 -14 -9 -21 -8 -30 3
-15 18 -30 10 -25 -14 2 -10 -3 -18 -10 -18 -8 0 -13 5 -12 11 1 6 -8 10 -20
9 -11 -1 -24 4 -26 12 -6 13 20 14 42 0 5 -3 12 -1 16 5 6 9 -8 14 -28 11 -5
-1 -6 3 -2 9 3 6 10 8 15 5 4 -3 11 1 13 7 4 10 6 9 6 -1 1 -11 4 -11 18 0 15
12 16 12 10 -3 -3 -10 -2 -20 3 -23 6 -4 10 4 11 17 1 23 1 23 9 -2 7 -21 15
-11 11 13 -1 5 3 6 9 2 5 -3 10 -2 10 3 0 14 -28 23 -36 11 -4 -6 -12 -5 -22
3 -12 10 -14 10 -8 1 4 -7 3 -13 -3 -13 -5 0 -13 5 -17 11 -4 7 -14 2 -28 -13
-11 -14 -29 -24 -38 -22 -21 3 -71 -34 -63 -46 3 -4 -3 -7 -12 -6 -9 2 -19 8
-21 14 -2 7 -7 10 -12 7 -4 -3 -3 6 3 19 13 28 27 15 19 -18 -3 -11 -1 -17 4
-13 10 9 12 77 2 71 -4 -2 -9 0 -13 6 -4 6 -13 7 -23 1 -9 -5 -21 -9 -27 -9
-5 0 -18 4 -27 9 -10 6 -19 5 -23 -1 -4 -6 -11 -7 -17 -4 -6 4 -8 2 -5 -3 4
-6 0 -13 -8 -17 -8 -3 -15 -11 -15 -18 0 -9 3 -9 11 2 9 13 10 12 5 -2 -3 -10
-1 -20 4 -23 6 -4 10 -2 10 3 0 5 11 8 25 8 14 -1 25 -5 25 -9 0 -4 0 -10 0
-13 0 -4 -7 -1 -15 6 -9 7 -15 8 -15 2 0 -12 -23 -10 -41 4 -20 15 -45 11 -41
-6 2 -8 0 -12 -4 -8 -4 4 -13 0 -21 -10 -8 -9 -12 -11 -8 -4 4 7 2 18 -3 25
-5 7 -8 19 -7 28 2 9 -9 20 -26 26 -16 6 -27 8 -24 3 3 -4 -2 -11 -11 -14 -8
-3 -13 -10 -10 -14 6 -10 -70 -9 -80 1 -3 3 7 12 24 21 29 15 42 13 42 -7 0
-5 -8 -6 -17 -2 -15 5 -16 4 -5 -6 18 -20 40 4 23 25 -10 12 -18 13 -32 5 -17
-9 -23 -6 -21 12 1 3 -11 4 -25 1 -18 -3 -24 -1 -19 7 7 11 -5 15 -33 12 -7
-2 -10 2 -6 8 3 6 2 11 -3 11 -6 0 -12 -6 -15 -14 -4 -10 1 -13 18 -12 17 2
23 -2 22 -15 -1 -16 -4 -16 -29 -3 -17 9 -25 19 -22 29 4 8 1 15 -6 15 -10 0
-10 3 -1 14 9 11 9 16 0 22 -7 4 -9 3 -6 -3 4 -6 0 -16 -9 -23 -12 -11 -12
-15 -2 -23 14 -10 15 -10 -88 29 -84 31 -204 55 -298 58 -58 2 -81 7 -84 17
-3 8 -18 34 -35 58 -17 24 -24 41 -16 37 8 -4 3 1 -11 13 -14 11 -25 26 -25
33 0 7 -4 13 -10 13 -15 0 -75 47 -70 55 2 3 -5 7 -16 7 -19 2 -19 -11 -19
-568z m787 204 c-9 -2 -14 -9 -11 -15 4 -7 2 -8 -5 -4 -15 10 -4 26 17 25 15
-1 15 -2 -1 -6z m328 -11 c6 0 19 5 30 10 16 8 18 8 8 -2 -6 -7 -9 -19 -6 -26
7 -20 -7 -17 -23 4 -12 15 -13 15 -8 0 4 -13 0 -16 -25 -14 -38 3 -47 11 -31
31 8 10 17 12 29 6 9 -5 21 -9 26 -9z m-185 -27 c0 -8 -2 -15 -4 -15 -2 0 -6
7 -10 15 -3 8 -1 15 4 15 6 0 10 -7 10 -15z m325 -23 c-2 -9 -4 -19 -4 -21 -1
-2 -9 3 -18 10 -15 12 -16 12 -9 -6 6 -16 5 -17 -5 -8 -10 10 -9 17 6 33 20
22 35 19 30 -8z m-355 8 c0 -5 -5 -10 -11 -10 -5 0 -7 5 -4 10 3 6 8 10 11 10
2 0 4 -4 4 -10z m-34 -12 c3 -4 -1 -5 -10 -4 -8 1 -18 5 -22 8 -3 4 1 5 10 4
8 -1 18 -5 22 -8z m291 -53 c0 -8 -4 -12 -9 -9 -5 3 -6 10 -3 15 9 13 12 11
12 -6z m-30 -10 c0 -8 -4 -12 -9 -9 -5 3 -6 10 -3 15 9 13 12 11 12 -6z"/>
<path d="M1235 2921 c-3 -5 -2 -12 3 -15 5 -3 9 1 9 9 0 17 -3 19 -12 6z"/>
<path d="M4319 3295 c-1 -3 -2 -11 -3 -17 -1 -7 -8 -12 -15 -10 -7 1 -10 -2
-7 -7 9 -13 -11 -24 -26 -14 -23 14 -40 13 -28 -2 7 -8 7 -15 1 -19 -5 -4 -12
-2 -16 3 -3 6 -13 7 -21 4 -15 -5 -15 -7 0 -15 9 -5 14 -13 11 -18 -3 -5 0
-12 6 -16 8 -5 9 -3 4 6 -6 9 -4 11 5 5 9 -6 11 -4 5 5 -6 9 -4 11 5 5 9 -6
11 -4 5 5 -5 9 -4 11 4 6 6 -4 18 -3 26 4 10 8 15 8 21 -1 4 -8 3 -9 -5 -5 -6
4 -10 4 -9 -1 2 -4 -7 -18 -19 -30 -13 -13 -23 -18 -23 -11 0 6 -3 8 -6 5 -10
-9 -46 12 -39 23 3 6 -1 7 -10 4 -11 -4 -14 -2 -10 9 4 8 -1 17 -9 20 -10 4
-14 0 -11 -13 4 -19 -10 -35 -29 -35 -5 0 -12 -10 -17 -22 -5 -13 -6 -23 -3
-23 2 0 9 10 14 23 8 21 9 21 7 -5 -1 -15 -3 -25 -6 -23 -2 3 -9 -3 -16 -11
-10 -14 -11 -11 -12 17 0 19 -4 43 -8 54 -8 17 -7 18 7 7 19 -15 31 -3 17 18
-6 10 -9 11 -9 3 0 -17 -22 -12 -37 7 -10 13 -12 13 -19 -3 -3 -10 -2 -23 4
-29 8 -8 9 -4 6 13 -4 18 0 16 15 -11 24 -42 27 -63 4 -35 l-16 20 8 -20 c13
-36 14 -55 4 -55 -6 0 -7 -6 -3 -12 4 -7 -1 -5 -11 4 -13 12 -15 21 -8 30 10
12 1 58 -11 58 -3 0 -1 -12 4 -26 8 -20 7 -25 -2 -22 -7 3 -14 10 -14 16 -1 7
-2 15 -3 19 0 3 -9 -1 -19 -10 -21 -19 -33 -13 -25 11 4 13 3 14 -5 3 -8 -11
-10 -11 -15 0 -4 11 -6 11 -6 1 -1 -7 -6 -10 -13 -6 -7 5 -8 3 -3 -6 6 -10 4
-12 -10 -6 -16 6 -16 4 -4 -11 8 -10 19 -21 24 -25 6 -5 5 -8 -3 -8 -7 0 -10
-5 -7 -10 4 -6 1 -9 -6 -8 -7 2 -13 -3 -14 -9 0 -7 -4 -14 -10 -14 -5 -1 -20
-5 -32 -10 -16 -6 -21 -4 -19 6 1 8 6 18 11 22 4 4 5 3 2 -4 -5 -7 -1 -10 10
-8 10 1 17 8 15 15 -1 6 2 8 9 4 8 -5 9 -3 4 6 -5 8 -4 11 3 6 15 -9 9 22 -8
37 -10 10 -11 9 -5 -2 6 -11 4 -13 -8 -8 -9 3 -16 3 -15 -1 3 -15 -15 -42 -24
-36 -5 3 -4 12 3 21 10 12 10 16 -2 24 -9 6 -18 3 -26 -8 -12 -16 -18 -11 -14
11 1 5 -4 4 -12 -3 -12 -9 -16 -9 -20 1 -3 8 -6 6 -6 -5 -1 -10 -6 -15 -11
-12 -6 4 -8 10 -5 15 3 5 1 11 -4 14 -5 4 -12 2 -16 -4 -4 -6 -12 -7 -18 -3
-8 5 -8 2 1 -9 10 -13 9 -18 -5 -29 -14 -12 -16 -12 -11 2 4 11 -1 15 -17 15
-13 0 -21 -4 -19 -8 3 -5 9 -6 14 -3 4 3 11 -2 14 -11 3 -8 11 -12 17 -8 9 5
10 -2 6 -24 -4 -17 -2 -34 4 -37 5 -4 9 -3 8 2 -1 4 -1 22 0 38 1 22 4 26 10
15 6 -8 7 -18 4 -22 -7 -12 17 -39 28 -32 5 3 9 10 9 15 0 6 -4 8 -9 4 -5 -3
-13 0 -17 6 -5 8 -3 9 6 4 8 -5 11 -4 6 3 -3 6 -2 13 3 17 6 3 8 12 4 20 -4
11 1 14 18 11 13 -2 23 -9 22 -15 -2 -5 3 -8 10 -6 7 3 12 -4 12 -19 0 -13 -4
-24 -10 -23 -5 1 -9 -3 -8 -10 1 -6 -5 -10 -15 -8 -9 1 -23 -2 -29 -8 -7 -5
-13 -6 -13 -2 0 4 -6 2 -14 -4 -10 -9 -16 -9 -21 -1 -5 8 -10 8 -20 0 -11 -9
-12 -7 -9 7 6 21 -13 79 -23 69 -3 -3 -12 -1 -20 5 -7 6 -13 8 -13 3 0 -5 -5
-2 -10 6 -7 11 -10 11 -10 2 0 -7 -4 -11 -9 -7 -6 3 -15 -4 -21 -16 -10 -17
-9 -20 1 -14 8 6 10 4 4 -6 -5 -8 -5 -11 0 -7 4 4 14 3 22 -3 10 -9 13 -8 13
0 0 7 5 9 11 5 8 -4 7 -9 -2 -15 -8 -4 -14 -14 -14 -21 0 -7 -7 -13 -15 -13
-8 -1 -14 -6 -13 -11 1 -6 -4 -11 -12 -11 -8 0 -12 4 -9 9 5 8 3 9 -38 12 -30
3 -60 -12 -52 -26 4 -7 9 -6 15 3 6 10 9 10 9 2 0 -17 -17 -25 -25 -13 -5 8
-12 7 -23 -2 -15 -11 -15 -11 -4 3 10 13 9 19 -3 29 -12 10 -17 7 -26 -16 -7
-16 -11 -33 -10 -39 1 -5 -6 -1 -17 8 -15 14 -21 15 -25 5 -4 -7 -4 2 -1 20 3
21 1 31 -6 27 -20 -12 -50 -14 -50 -2 0 7 -10 18 -22 26 -20 13 -22 12 -11 -1
7 -8 10 -18 6 -21 -3 -4 -12 1 -20 11 -12 16 -13 16 -6 -2 5 -15 3 -17 -8 -10
-21 13 -42 14 -56 2 -9 -7 -13 -7 -13 0 0 6 -9 10 -19 9 -11 0 -17 -5 -15 -9
3 -4 1 -8 -5 -8 -5 0 -12 6 -14 13 -4 9 -6 9 -6 -1 -1 -7 -6 -10 -13 -6 -7 4
-8 3 -4 -4 4 -7 1 -12 -9 -12 -10 0 -13 5 -9 12 4 7 3 8 -4 4 -7 -4 -12 -2
-12 5 0 7 -3 9 -6 6 -4 -4 -1 -13 6 -22 11 -13 10 -14 -4 -9 -9 3 -16 2 -16
-4 0 -11 55 -10 66 1 4 4 12 7 18 7 5 0 2 -6 -9 -13 -12 -10 -14 -16 -7 -21 7
-4 12 -2 12 5 0 8 5 7 17 -2 15 -12 16 -12 10 3 -7 19 17 45 28 28 6 -10 -1
-14 -18 -11 -5 1 -6 -3 -2 -9 5 -8 11 -8 21 1 7 6 11 16 7 22 -4 6 -1 7 7 2 8
-5 11 -4 7 1 -3 5 3 10 13 10 10 0 16 -4 14 -8 -2 -4 5 -5 17 -3 17 4 19 2 9
-10 -8 -10 -9 -15 -2 -15 6 0 18 10 28 23 12 16 15 17 10 4 -3 -10 -2 -16 3
-13 5 3 14 -1 21 -9 14 -17 7 -19 -18 -6 -17 9 -47 -4 -50 -21 -3 -12 -17 -10
-18 2 -1 6 -3 13 -4 18 -1 4 -2 10 -1 15 1 9 -13 9 -22 0 -4 -3 -1 -13 6 -22
10 -14 10 -14 -3 -4 -12 9 -19 8 -34 -3 -10 -7 -23 -11 -28 -8 -11 7 -49 -26
-43 -36 3 -4 -2 -13 -9 -19 -10 -8 -16 -9 -21 -1 -3 6 -10 8 -15 5 -5 -3 -11
-1 -14 4 -3 4 3 8 14 7 11 0 18 2 17 5 -1 3 4 13 10 21 13 15 8 28 -9 28 -5 0
-7 -4 -3 -9 3 -5 0 -13 -6 -17 -7 -4 -9 -3 -6 3 4 6 -2 18 -13 28 -14 12 -17
22 -10 30 7 8 5 12 -5 12 -8 0 -12 -4 -9 -9 3 -4 0 -8 -5 -8 -6 0 -11 -8 -11
-17 0 -13 3 -14 8 -6 6 9 11 7 19 -7 10 -14 9 -21 -3 -31 -12 -10 -15 -10 -12
2 2 8 -5 14 -14 14 -25 0 -43 21 -27 30 8 6 10 4 4 -5 -5 -9 -4 -11 3 -6 15 9
15 11 -5 27 -11 10 -14 10 -9 2 4 -7 2 -13 -3 -13 -16 0 -13 -21 6 -42 16 -18
16 -19 -11 -9 -15 6 -29 11 -30 11 -2 0 -2 -13 -1 -29 2 -28 -13 -36 -32 -17
-4 4 -3 6 4 4 6 -2 11 2 12 7 0 6 -7 10 -17 9 -12 -1 -18 6 -18 22 0 12 4 21
8 18 4 -3 5 3 1 13 -6 15 -9 13 -20 -12 l-14 -30 4 27 c2 16 0 26 -7 25 -6 -1
-10 3 -9 9 1 6 -5 11 -13 11 -8 0 -12 -2 -10 -5 8 -8 -19 -30 -29 -24 -38 24
-42 -9 -4 -40 13 -11 17 -17 9 -13 -8 4 -6 -1 4 -9 11 -9 17 -16 13 -16 -3 0
9 -30 27 -67 19 -38 41 -93 50 -124 40 -136 38 -322 -4 -443 -11 -33 -20 -63
-20 -68 0 -4 20 -8 45 -8 25 0 45 -2 45 -4 0 -2 -8 -24 -19 -48 -78 -183 -454
-295 -900 -267 -171 11 -335 34 -631 90 -190 35 -224 45 -294 80 -147 76 -244
96 -326 67 l-33 -11 93 -47 93 -47 -91 -29 c-51 -15 -92 -31 -92 -35 0 -14 95
-39 151 -39 32 0 95 11 145 26 49 15 96 28 104 30 10 3 29 -22 60 -83 34 -67
64 -108 125 -169 69 -70 95 -89 187 -134 59 -29 133 -60 165 -70 62 -19 61
-20 -42 -40 -162 -31 -538 -140 -549 -159 -7 -11 8 -17 87 -35 161 -37 320
-67 334 -62 8 3 12 2 9 -3 -5 -7 46 -17 229 -46 142 -22 267 -36 272 -31 4 3
2 10 -3 15 -17 17 -413 143 -425 135 -7 -4 -9 -3 -6 3 4 6 -20 18 -56 28 l-62
17 65 19 c266 78 635 98 912 49 175 -31 347 -80 282 -80 -34 -1 -415 -136
-407 -145 5 -4 3 -5 -4 -1 -7 4 -44 -3 -83 -15 -72 -22 -92 -33 -40 -22 20 3
30 1 30 -6 0 -7 5 -9 12 -5 6 4 23 8 37 10 40 4 214 33 331 56 128 24 137 26
175 34 195 38 335 73 335 83 0 5 -33 18 -72 30 -40 12 -86 27 -103 33 -115 38
-210 64 -345 93 -144 30 -153 33 -125 44 258 102 436 340 490 654 l6 37 704 0
705 0 0 495 c0 466 -1 495 -17 492 -10 -1 -23 -6 -30 -10 -14 -9 -21 2 -18 26
2 9 -1 17 -5 17 -5 0 -10 -9 -12 -20 -2 -12 -7 -20 -13 -19 -5 0 -8 6 -6 13 2
6 4 21 5 33 2 27 16 43 16 19 0 -10 6 -16 13 -13 6 2 11 10 9 17 -2 7 5 22 15
34 l18 21 -22 -19 c-21 -17 -28 -15 -24 7 1 8 -8 10 -10 2z m-54 -54 c3 -5 2
-12 -3 -15 -5 -3 -9 1 -9 9 0 17 3 19 12 6z m-57 -74 c12 -11 22 -24 22 -28 0
-11 -47 -4 -63 9 -8 7 -16 9 -20 6 -8 -8 -3 18 6 34 9 14 21 9 55 -21z m-204
-9 c11 9 16 12 13 5 -4 -6 -3 -14 2 -17 11 -7 7 -41 -5 -41 -5 0 -14 -4 -20
-8 -16 -9 -36 17 -28 37 5 12 2 15 -10 10 -9 -3 -16 -2 -16 3 0 19 14 23 29 8
13 -13 17 -13 35 3z m280 -9 c-3 -5 -10 -7 -15 -3 -5 3 -7 10 -3 15 3 5 10 7
15 3 5 -3 7 -10 3 -15z m-539 2 c-3 -5 -1 -12 5 -16 6 -4 8 -11 5 -16 -4 -5
-1 -9 5 -9 6 0 8 -5 4 -11 -5 -8 -10 -6 -16 5 -5 9 -14 13 -20 10 -7 -5 -8 -2
-2 7 5 8 9 17 10 22 3 15 4 17 10 17 3 0 3 -4 -1 -9z m100 -22 c-10 -15 -25
-10 -19 6 4 8 10 12 15 9 5 -3 7 -10 4 -15z m52 -7 c-10 -10 -14 -23 -10 -28
4 -5 1 -3 -7 4 -13 12 -13 15 4 28 27 19 32 18 13 -4z m-237 -22 c3 -1 8 -2
11 -2 4 1 9 -8 12 -18 3 -11 1 -20 -3 -20 -5 0 -7 -9 -5 -20 5 -26 -9 -34 -26
-14 -11 14 -11 18 4 29 17 13 23 26 10 24 -5 -1 -12 0 -18 1 -5 1 -16 3 -24 4
-8 0 -16 6 -18 12 -3 9 38 12 57 4z m-800 -131 c0 -11 -4 -17 -10 -14 -5 3
-10 0 -10 -7 0 -11 -2 -11 -9 0 -4 7 -17 15 -27 17 -10 2 -20 4 -22 4 -2 1 0
6 3 11 5 8 12 7 22 -2 12 -10 17 -9 25 5 11 21 28 13 28 -14z m370 -15 c0 -8
-19 -13 -24 -6 -3 5 1 9 9 9 8 0 15 -2 15 -3z m-365 -24 c-3 -5 -12 -10 -18
-10 -7 0 -6 4 3 10 19 12 23 12 15 0z m295 -5 c0 -2 -6 -8 -13 -14 -10 -8 -14
-7 -14 2 0 8 6 14 14 14 7 0 13 -1 13 -2z m-173 -19 c0 -8 -6 -12 -15 -9 -11
5 -11 7 0 14 7 5 13 9 14 9 0 0 1 -6 1 -14z m-1665 -1603 c-6 -2 -9 -10 -6
-15 4 -7 2 -8 -5 -4 -13 9 -5 26 12 25 9 0 8 -2 -1 -6z"/>
<path d="M4156 3181 c-8 -12 21 -34 45 -36 24 -2 24 -3 -10 23 -17 12 -32 18
-35 13z m25 -18 c13 -16 12 -17 -3 -4 -17 13 -22 21 -14 21 2 0 10 -8 17 -17z"/>
<path d="M3979 3129 c-6 -4 -8 -12 -4 -18 5 -8 11 -9 19 -2 7 6 15 9 18 6 2
-3 5 1 5 8 0 15 -19 18 -38 6z"/>
<path d="M3650 3041 c0 -6 4 -13 10 -16 6 -3 7 1 4 9 -7 18 -14 21 -14 7z"/>
<path d="M4255 3279 c-3 -4 2 -6 10 -5 21 3 28 13 10 13 -9 0 -18 -4 -20 -8z"/>
<path d="M4060 3256 c0 -2 8 -10 18 -17 15 -13 16 -12 3 4 -13 16 -21 21 -21
13z"/>
<path d="M4390 3243 c0 -10 -4 -24 -9 -31 -7 -11 -9 -10 -14 3 -4 9 -3 13 3
10 6 -3 10 -1 10 4 0 14 -17 14 -25 1 -3 -5 -8 -19 -10 -31 -3 -15 -1 -18 8
-11 12 10 18 12 35 12 4 0 9 14 10 30 1 17 0 30 -3 30 -3 0 -5 -8 -5 -17z"/>
<path d="M4055 3129 c-4 -6 -5 -12 -2 -15 2 -3 7 2 10 11 7 17 1 20 -8 4z"/>
<path d="M3555 3085 c1 -22 -2 -32 -9 -27 -30 19 -57 3 -31 -18 12 -10 15 -10
15 1 0 11 2 11 10 -1 5 -8 10 -11 10 -7 0 4 9 3 19 -3 14 -7 22 -7 26 0 4 6
10 8 15 5 4 -3 7 1 6 7 -1 7 -4 13 -7 13 -14 0 -37 28 -33 39 3 8 -1 16 -9 19
-10 4 -14 -3 -12 -28z m41 -42 c-7 -7 -21 -4 -21 5 0 4 -4 14 -9 22 -6 9 -1 7
12 -4 12 -11 20 -21 18 -23z"/>
<path d="M3520 3095 c-7 -8 -17 -12 -24 -8 -15 10 -37 13 -32 4 3 -4 1 -13 -5
-21 -5 -9 -9 -10 -9 -3 0 6 -9 11 -20 10 -18 -1 -18 -2 -3 -19 15 -16 11 -23
-10 -19 -5 1 -5 -4 -1 -10 4 -8 3 -9 -5 -5 -6 4 -10 13 -9 19 2 7 -1 13 -6 14
-5 1 -13 7 -17 15 -7 10 -9 9 -9 -5 0 -10 -5 -15 -10 -12 -6 4 -8 10 -5 15 3
4 -2 14 -11 21 -12 10 -15 10 -12 -1 2 -8 -3 -14 -9 -15 -17 0 -13 -15 8 -38
15 -16 18 -17 32 -3 21 22 26 20 23 -9 -2 -14 3 -30 10 -36 11 -9 16 -6 23 14
13 33 26 40 41 22 9 -11 16 -12 30 -2 13 7 16 15 9 23 -9 11 3 28 26 36 5 1
10 9 11 16 3 16 -1 15 -16 -3z m-28 -27 c-6 -6 -8 -16 -6 -23 10 -26 -14 -24
-37 3 -13 14 -17 21 -9 15 10 -8 21 -9 30 -3 8 6 11 10 7 10 -5 0 -5 5 -2 10
4 6 11 7 17 4 6 -4 6 -10 0 -16z m-145 5 c-4 -3 -2 -12 4 -19 6 -7 6 -14 1
-18 -6 -3 -13 1 -16 10 -6 16 0 34 11 34 4 0 3 -3 0 -7z"/>
<path d="M3787 3098 c-2 -7 -1 -21 2 -31 6 -17 8 -18 20 -3 8 9 11 19 7 23 -3
3 -6 1 -6 -6 0 -7 -4 -10 -10 -6 -5 3 -7 12 -3 20 3 8 3 15 0 15 -3 0 -7 -6
-10 -12z"/>
<path d="M966 3062 c-3 -5 1 -9 9 -9 8 0 12 4 9 9 -3 4 -7 8 -9 8 -2 0 -6 -4
-9 -8z"/>
<path d="M3733 3045 c0 -8 4 -12 9 -9 5 3 6 10 3 15 -9 13 -12 11 -12 -6z"/>
<path d="M2943 3025 c0 -6 6 -12 12 -12 6 0 12 6 12 12 0 6 -6 12 -12 12 -6 0
-12 -6 -12 -12z"/>
<path d="M956 3021 c-3 -4 -17 -7 -31 -6 -33 4 -39 -8 -15 -30 17 -16 20 -16
25 -2 7 16 29 18 32 2 0 -6 -2 -9 -6 -8 -5 1 -7 -47 -2 -66 1 -2 10 4 21 14
11 10 20 14 21 9 0 -5 4 0 8 11 12 29 2 39 -20 19 -10 -9 -19 -12 -19 -6 0 6
8 17 19 24 18 13 18 14 -5 31 -12 9 -25 13 -28 8z m25 -18 c12 -16 12 -17 -2
-6 -9 7 -20 9 -24 5 -5 -4 -5 -1 -1 6 9 16 11 15 27 -5z m-49 0 c-6 -3 -9 -10
-5 -16 4 -7 -1 -6 -10 2 -21 17 -21 17 6 18 12 0 16 -1 9 -4z m78 -36 c0 -2
-10 -13 -23 -25 -18 -17 -24 -19 -24 -8 0 8 4 13 8 11 3 -3 12 2 19 10 12 14
20 19 20 12z"/>
<path d="M836 3008 c3 -5 10 -6 15 -3 13 9 11 12 -6 12 -8 0 -12 -4 -9 -9z"/>
<path d="M1023 2996 c-1 -12 1 -15 4 -8 3 6 8 10 12 8 4 -3 8 1 8 8 0 22 -23
14 -24 -8z"/>
<path d="M865 3001 c-3 -5 -2 -12 3 -15 5 -3 9 1 9 9 0 17 -3 19 -12 6z"/>
<path d="M2915 2993 c1 -10 -2 -24 -8 -30 -5 -7 -8 -13 -6 -14 2 0 11 -2 19
-4 21 -4 25 39 6 54 -12 10 -14 8 -11 -6z"/>
<path d="M3245 3001 c-3 -5 -2 -12 3 -15 5 -3 9 1 9 9 0 17 -3 19 -12 6z"/>
<path d="M2950 2981 c0 -6 4 -13 10 -16 6 -3 7 1 4 9 -7 18 -14 21 -14 7z"/>
<path d="M3108 2978 c9 -9 9 -15 -1 -27 -11 -14 -10 -14 6 -2 13 10 15 17 6
27 -6 8 -14 14 -17 14 -3 0 -1 -5 6 -12z"/>
<path d="M1199 2953 c-5 -31 -5 -32 13 -16 19 17 24 28 9 18 -5 -3 -11 3 -13
12 -3 11 -6 5 -9 -14z"/>
<path d="M2061 1143 c-1 -17 11 -22 34 -12 19 9 19 9 -2 5 -12 -2 -24 1 -27 8
-3 8 -5 8 -5 -1z"/>
<path d="M2159 1068 c-5 -18 -6 -38 -1 -34 7 8 12 36 6 36 -2 0 -4 -1 -5 -2z"/>
<path d="M3540 1066 c0 -2 8 -10 18 -17 15 -13 16 -12 3 4 -13 16 -21 21 -21
13z"/>
<path d="M714 1048 c-4 -7 -4 -10 1 -6 4 4 15 2 24 -5 14 -11 14 -10 2 6 -16
20 -18 21 -27 5z"/>
<path d="M2191 1044 c0 -11 3 -14 6 -6 3 7 2 16 -1 19 -3 4 -6 -2 -5 -13z"/>
<path d="M1904 1029 c-3 -6 -2 -15 3 -20 5 -5 9 -1 9 11 0 23 -2 24 -12 9z"/>
<path d="M1954 1020 c1 -8 7 -15 14 -15 6 0 12 -4 12 -10 0 -5 -12 -10 -27
-10 -21 -1 -28 -6 -28 -19 0 -11 8 -20 18 -22 15 -2 16 0 6 12 -8 10 -8 14 0
15 6 1 17 2 24 3 6 1 17 -2 24 -6 20 -16 23 9 3 27 -21 19 -28 41 -8 29 7 -5
8 -3 3 6 -6 10 -11 9 -21 -4 -9 -13 -13 -14 -17 -4 -2 9 -4 8 -3 -2z"/>
<path d="M2048 1028 c9 -9 8 -16 -6 -32 -17 -21 -17 -21 5 -2 18 15 20 22 12
33 -6 7 -14 13 -17 13 -3 0 -1 -5 6 -12z"/>
<path d="M2218 1024 c6 -12 9 -23 7 -26 -3 -3 4 -4 15 -3 11 1 23 5 27 10 5 4
3 5 -4 1 -6 -3 -22 4 -34 16 -20 22 -21 22 -11 2z"/>
<path d="M2240 1029 c0 -5 5 -7 10 -4 6 3 10 8 10 11 0 2 -4 4 -10 4 -5 0 -10
-5 -10 -11z"/>
<path d="M420 1016 c0 -2 8 -10 18 -17 15 -13 16 -12 3 4 -13 16 -21 21 -21
13z"/>
<path d="M545 1010 c-3 -6 -10 -8 -15 -5 -9 5 -8 -13 1 -30 3 -5 4 -20 3 -33
-1 -15 3 -21 11 -18 7 2 18 -1 24 -7 6 -6 11 -7 11 -1 0 13 -16 36 -24 35 -16
-2 -18 0 -6 14 7 8 17 12 23 8 6 -3 7 -1 3 5 -11 18 0 14 15 -5 8 -9 9 -14 4
-11 -6 4 -11 -3 -12 -15 0 -12 1 -16 4 -9 7 19 19 14 20 -8 1 -11 -2 -18 -7
-15 -5 3 -12 0 -16 -6 -5 -8 -3 -9 6 -4 9 6 11 4 5 -6 -7 -11 -6 -12 7 -2 8 7
18 10 22 6 4 -4 4 1 0 12 -7 20 -6 20 9 0 9 -11 17 -15 17 -9 0 6 7 11 15 11
8 0 11 -5 8 -10 -3 -6 -1 -7 6 -3 6 4 9 12 6 17 -7 10 8 12 19 2 12 -12 46
-13 46 -1 0 6 7 3 16 -8 8 -10 12 -12 8 -4 -4 8 5 4 21 -10 16 -14 25 -20 21
-13 -3 6 -1 15 5 19 8 5 10 2 5 -7 -4 -8 2 -3 13 11 16 19 20 20 14 6 -5 -15
-3 -18 9 -13 9 3 23 -2 34 -14 21 -23 30 -24 38 -3 4 10 2 13 -7 8 -7 -5 -5 0
3 11 12 15 12 17 1 10 -10 -6 -12 -4 -7 4 6 9 13 8 27 -5 10 -9 19 -12 19 -6
0 6 -8 15 -17 21 -16 9 -16 10 4 8 12 0 19 -5 16 -11 -4 -5 -1 -6 7 -1 9 6 12
4 8 -7 -4 -8 -1 -15 7 -15 7 0 11 6 8 14 -3 7 0 13 7 13 6 0 9 -4 5 -9 -3 -5
-1 -12 5 -16 5 -3 14 -14 20 -24 8 -15 6 -18 -13 -17 -12 0 -21 -4 -20 -10 1
-7 -6 -10 -18 -7 -16 5 -18 8 -7 14 10 7 9 9 -4 9 -19 0 -26 -29 -8 -31 6 -1
15 -3 20 -4 6 -1 13 -3 17 -4 3 0 -2 -10 -12 -21 -10 -11 -13 -20 -8 -20 14 0
34 25 37 45 2 17 21 22 21 6 0 -6 6 -16 13 -22 10 -11 12 -10 12 1 0 7 3 10 6
7 4 -3 15 -2 26 4 17 9 18 8 9 -9 -7 -14 -7 -19 4 -19 8 0 11 7 7 15 -4 11 -1
14 12 9 9 -4 15 -3 12 1 -3 4 6 8 19 8 13 0 21 -4 18 -10 -4 -5 -1 -6 7 -1 8
5 11 4 7 -2 -4 -6 1 -17 11 -24 15 -12 16 -12 4 2 -17 22 7 45 28 26 10 -10
11 -9 5 2 -6 10 -4 12 5 6 9 -6 11 -4 5 6 -5 8 -5 11 0 7 11 -11 36 12 29 26
-3 6 1 2 10 -9 8 -11 19 -25 24 -30 5 -7 4 -16 -4 -22 -9 -9 -13 -9 -17 2 -3
7 -13 12 -22 11 -17 -2 -22 -21 -5 -21 6 0 10 -3 10 -7 0 -5 0 -11 0 -15 0 -3
-8 1 -17 9 -38 32 -59 35 -28 4 14 -14 13 -15 -12 -13 -17 1 -31 10 -36 21 -7
18 -8 18 -27 1 -11 -10 -20 -15 -20 -10 0 4 -6 2 -14 -5 -8 -6 -13 -17 -10
-25 3 -7 1 -16 -5 -20 -7 -3 -8 0 -5 9 7 18 -17 16 -42 -4 -9 -8 -19 -14 -21
-12 -1 1 -2 -1 0 -5 1 -5 5 -7 8 -6 3 1 6 -5 6 -13 0 -12 -3 -12 -18 2 -16 14
-18 14 -28 -3 -7 -12 -10 -13 -11 -4 0 11 -3 11 -16 1 -12 -11 -15 -11 -12 1
2 9 -5 14 -19 13 -14 -1 -20 3 -16 12 3 8 9 14 15 14 5 0 6 5 2 12 -4 7 -3 8
4 4 7 -4 12 -2 12 3 0 6 -5 11 -12 11 -6 0 -3 7 8 16 17 14 17 15 1 10 -10 -3
-21 -6 -23 -6 -2 0 -4 -5 -4 -11 0 -7 -8 -18 -17 -25 -13 -10 -14 -13 -4 -14
11 0 10 -5 -2 -24 -12 -17 -13 -26 -4 -35 8 -8 8 -14 -2 -23 -10 -11 -11 -9
-5 6 5 13 4 17 -3 13 -12 -7 -11 6 2 36 4 9 2 23 -4 31 -6 7 -8 16 -4 19 3 4
2 7 -3 8 -52 6 -64 5 -61 -5 3 -6 10 -10 16 -8 7 1 10 -2 7 -7 -10 -15 -41 -5
-38 12 3 19 -35 19 -42 0 -3 -8 1 -10 12 -6 9 3 4 -4 -13 -15 -16 -10 -33 -18
-36 -16 -3 2 -5 19 -4 38 2 26 -1 34 -14 34 -9 -1 -21 1 -26 3 -6 2 -10 0 -10
-6 0 -5 3 -9 6 -8 3 1 5 -13 4 -30 0 -18 4 -35 10 -39 6 -5 5 -8 -2 -8 -7 0
-13 -4 -13 -10 0 -5 8 -7 18 -4 14 5 15 4 2 -5 -11 -8 -18 -7 -25 3 -16 21
-21 22 -37 9 -13 -11 -15 -9 -14 12 1 13 5 27 9 31 4 4 2 13 -5 21 -6 8 -7 13
-2 12 21 -4 35 2 29 12 -4 6 -13 8 -19 6 -7 -3 -13 1 -13 9 0 7 4 11 9 8 9 -6
11 10 2 19 -10 10 -34 -4 -27 -17 4 -6 0 -5 -9 2 -15 12 -16 10 -13 -15 5 -40
5 -40 16 -18 8 16 8 15 4 -8 -4 -22 -3 -27 7 -21 10 6 10 5 2 -7 -6 -8 -10
-22 -9 -32 3 -15 1 -16 -11 -6 -11 9 -12 15 -3 25 11 14 1 20 -25 15 -5 -1 -4
5 4 13 9 11 9 16 1 16 -6 0 -16 -11 -21 -25 -12 -32 -16 -32 -14 3 1 34 -5 53
-17 46 -5 -3 -7 -9 -4 -14 3 -5 1 -11 -4 -15 -6 -3 -8 3 -6 14 2 11 -4 26 -13
33 -14 11 -15 11 -9 -5 4 -11 3 -16 -3 -12 -6 3 -10 -1 -10 -10 0 -9 4 -14 9
-10 6 3 8 -3 6 -15 -2 -11 0 -22 6 -25 5 -4 9 -1 9 6 0 7 3 9 6 6 4 -4 1 -14
-7 -24 -12 -15 -12 -16 4 -10 11 4 20 1 23 -8 5 -12 9 -11 23 7 14 17 18 18
18 5 0 -9 -4 -14 -8 -12 -4 3 -10 -2 -13 -10 -4 -12 -10 -13 -25 -5 -29 15
-38 12 -15 -5 10 -8 17 -15 14 -15 -31 -7 -39 -7 -34 1 9 16 -6 31 -20 20 -9
-8 -18 -6 -30 8 -15 16 -15 20 -1 31 8 7 12 16 9 21 -8 13 -24 11 -21 -3 1 -7
-4 -13 -10 -14 -7 -1 -16 -2 -19 -3 -4 0 -1 -7 5 -15 9 -10 9 -16 1 -21 -8 -5
-8 -11 1 -21 6 -7 16 -11 21 -8 6 4 5 10 -3 16 -11 8 -11 9 1 5 8 -2 16 -9 16
-15 3 -23 4 -24 17 -14 9 8 13 3 13 -21 1 -18 -1 -26 -3 -19 -3 6 -9 10 -14 6
-5 -3 -8 -2 -7 3 2 4 0 8 -3 8 -4 0 -16 8 -27 18 -16 15 -22 16 -28 5 -5 -7
-9 -17 -9 -23 0 -5 -7 -10 -15 -10 -8 -1 -14 -6 -13 -11 1 -6 -5 -11 -13 -11
-7 0 -12 3 -9 5 3 3 -3 15 -12 26 -10 12 -14 18 -9 13 5 -4 18 0 28 10 21 19
25 41 4 24 -11 -9 -13 -7 -12 10 0 12 -4 24 -11 26 -8 3 -10 -7 -8 -29 2 -18
1 -25 -1 -15 -5 16 -7 15 -24 -5 -11 -13 -19 -18 -20 -11 0 7 -7 10 -17 6 -11
-3 -7 2 7 13 14 10 28 19 33 20 4 1 10 2 15 3 4 1 0 6 -8 11 -10 6 -21 3 -36
-11 -14 -13 -24 -17 -29 -10 -3 6 -11 11 -16 11 -6 0 -8 -4 -4 -9 3 -5 1 -12
-5 -16 -6 -4 -8 -11 -4 -16 3 -5 10 -6 16 -3 7 5 8 2 4 -5 -6 -9 -13 -8 -27 5
-13 12 -16 21 -9 29 5 6 7 15 3 18 -10 11 -33 8 -33 -4 0 -5 5 -7 12 -3 7 5 8
3 3 -6 -7 -11 -10 -10 -19 1 -10 13 -18 15 -43 10 -3 0 2 -10 12 -21 10 -11
21 -18 25 -15 4 2 7 -2 7 -9 0 -7 -6 -13 -13 -13 -7 0 -12 5 -11 10 1 5 -8 11
-21 13 -17 3 -21 0 -16 -8 6 -10 4 -10 -8 0 -11 9 -18 10 -23 2 -3 -5 -1 -10
5 -10 7 0 5 -7 -5 -16 -13 -13 -13 -19 -3 -33 12 -14 11 -15 -5 -2 -16 12 -22
9 -18 -12 1 -5 -3 -5 -9 -2 -8 5 -6 13 6 26 9 11 14 22 11 26 -4 3 -1 13 6 21
10 13 8 14 -12 7 -19 -6 -23 -4 -18 9 3 8 1 18 -5 22 -7 4 -6 9 3 14 7 5 14
16 15 24 1 9 -2 13 -8 10 -7 -5 -8 -2 -3 6 6 9 4 11 -6 5 -11 -7 -11 -5 1 10
9 11 10 16 2 11 -6 -4 -12 -2 -12 3 0 6 6 11 13 11 8 0 7 4 -3 10 -12 8 -12
10 -1 10 8 0 11 3 8 7 -9 9 13 34 24 27 5 -3 6 2 3 10 -4 11 0 16 12 15 11 0
14 -3 8 -5 -17 -7 -4 -46 13 -40 8 3 11 1 8 -4 -3 -6 -2 -10 3 -10 6 0 12 7
16 15 5 13 -5 19 -26 16 -4 0 -5 6 -2 14 7 16 20 20 27 8 2 -5 2 -2 0 5 -1 7
2 10 7 7 6 -3 10 -2 10 3 0 6 -7 13 -16 16 -22 8 -26 8 -19 -4 3 -5 -3 -10
-15 -10 -12 0 -19 4 -16 8 3 5 -10 16 -29 25 l-35 17 0 -33 c0 -41 8 -51 29
-34 14 11 14 10 2 -5 -7 -10 -16 -16 -20 -14 -15 10 -7 -99 8 -112 14 -12 14
-13 0 -9 -18 6 -22 -24 -5 -35 8 -6 8 -8 -1 -8 -8 0 -12 -91 -13 -350 l-1
-350 2201 0 2201 0 -2 360 c-1 221 -6 360 -12 360 -5 0 -7 -6 -4 -13 3 -7 -1
-21 -9 -32 -8 -10 -14 -14 -14 -8 0 6 -8 10 -17 8 -10 -2 -20 -4 -22 -4 -2 -1
4 -11 15 -23 15 -19 16 -20 2 -9 -23 17 -23 4 0 -23 17 -21 17 -21 -4 -3 -11
9 -24 14 -28 10 -4 -4 -4 0 -1 8 4 12 -1 15 -27 14 -18 0 -40 -4 -48 -9 -12
-7 -12 -6 -3 4 6 7 9 20 6 29 -3 12 -2 13 4 3 7 -10 13 -8 27 7 10 11 25 17
34 15 13 -4 13 -2 -2 10 -23 19 -37 21 -33 5 1 -6 -6 -13 -15 -14 -10 -2 -18
1 -18 6 0 6 -4 8 -10 4 -5 -3 -7 -12 -4 -19 3 -8 0 -17 -5 -21 -6 -3 -9 -11
-6 -16 3 -5 -1 -6 -9 -3 -9 3 -16 11 -16 18 0 7 -3 6 -9 -2 -6 -10 -10 -10
-20 2 -9 11 -9 16 0 22 8 5 9 3 4 -6 -6 -10 -4 -12 8 -7 9 3 19 2 22 -4 7 -11
25 -2 25 12 0 6 -4 8 -9 4 -5 -3 -12 -1 -15 4 -4 5 -1 13 5 17 8 4 7 9 -2 15
-18 11 -32 11 -25 0 4 -5 -2 -8 -11 -7 -10 2 -23 -4 -30 -13 -9 -11 -13 -12
-14 -3 -1 6 -2 16 -3 21 -2 16 -16 25 -16 10 0 -11 -2 -12 -9 -1 -7 11 -9 11
-14 -2 -4 -10 -1 -16 8 -16 7 0 17 -4 20 -10 3 -5 0 -7 -9 -4 -11 4 -14 0 -11
-15 2 -12 0 -19 -6 -16 -5 4 -7 10 -4 15 8 12 -33 52 -45 45 -15 -9 -12 -27 3
-19 6 4 9 4 5 -1 -4 -4 -3 -13 2 -20 7 -8 5 -12 -5 -12 -7 0 -13 5 -12 10 1 5
-3 11 -9 14 -7 2 -11 -6 -10 -19 1 -14 -4 -22 -12 -20 -7 1 -23 -3 -35 -9 -12
-7 -19 -8 -15 -4 4 5 3 14 -4 22 -9 11 -8 13 2 11 8 -2 14 4 15 12 0 8 7 15
15 15 8 1 14 6 13 13 -2 7 0 11 5 9 4 -1 8 3 10 8 3 12 -36 16 -44 4 -3 -5 0
-9 7 -9 7 0 10 -3 7 -6 -4 -3 -17 2 -30 10 -14 9 -27 13 -31 10 -3 -4 -5 3 -2
14 2 12 0 24 -5 27 -12 7 -18 -17 -10 -40 4 -11 3 -28 -2 -38 -6 -11 -5 -17 3
-17 6 0 8 -7 5 -16 -5 -13 -4 -14 7 -6 10 9 14 9 14 -1 0 -7 -9 -14 -20 -14
-13 -1 -17 3 -13 13 3 8 2 12 -3 9 -5 -3 -12 -1 -16 5 -4 6 -12 7 -18 3 -8 -5
-8 -2 0 9 7 8 10 18 6 21 -3 4 -12 -1 -18 -10 -11 -15 -13 -15 -24 6 -8 15
-16 19 -24 14 -11 -8 -20 -9 -43 -4 -4 0 -1 7 5 15 8 10 8 16 -3 25 -9 7 -17
8 -20 2 -3 -5 -2 -11 4 -13 6 -2 6 -8 0 -18 -8 -13 -10 -13 -10 2 0 9 -4 20
-10 23 -6 3 -7 -1 -4 -9 4 -9 1 -16 -6 -16 -9 0 -9 -4 1 -17 13 -16 12 -17 -3
-4 -10 7 -16 17 -13 21 3 4 -7 8 -21 8 l-25 0 27 -29 c15 -16 32 -26 37 -22 6
4 7 1 3 -6 -6 -9 -13 -8 -27 5 -17 16 -24 13 -20 -9 1 -5 -3 -6 -8 -3 -5 3 -8
14 -6 24 3 22 -13 42 -30 36 -7 -3 -19 4 -27 15 -8 12 -18 18 -21 14 -4 -3 0
-15 10 -25 9 -10 14 -18 12 -19 -2 0 -12 -2 -21 -4 -18 -3 -45 21 -34 32 3 3
6 1 6 -6 0 -7 5 -9 10 -6 8 5 7 11 -1 21 -6 7 -16 11 -22 7 -5 -3 -7 -1 -3 5
13 21 -12 21 -30 0 -17 -19 -17 -21 -2 -15 10 3 20 2 24 -4 10 -17 -3 -22 -24
-10 -19 10 -21 8 -20 -19 1 -18 6 -29 12 -27 6 3 10 11 8 18 -2 8 0 10 5 6 4
-5 8 -14 8 -20 1 -7 6 -11 13 -9 15 3 16 -14 2 -23 -6 -3 -13 0 -16 9 -3 8
-12 12 -20 9 -7 -3 -17 2 -20 11 -5 12 -11 13 -27 5 -18 -8 -17 -7 3 10 17 14
20 19 9 18 -10 -2 -25 -9 -35 -17 -17 -14 -18 -14 -5 3 11 14 11 17 0 17 -7 0
-3 7 9 16 18 12 21 19 11 30 -15 18 -30 9 -23 -14 4 -11 3 -13 -3 -6 -13 19
-66 11 -92 -13 -20 -19 -21 -21 -5 -18 11 2 22 4 27 4 4 1 6 6 5 13 -2 6 8 12
21 12 30 1 36 -26 11 -49 -19 -17 -46 -12 -35 6 4 5 2 9 -3 9 -16 0 -22 -13
-11 -27 6 -7 8 -13 3 -13 -4 0 7 -11 24 -24 26 -19 29 -25 17 -30 -9 -3 -14
-2 -11 3 7 11 -18 32 -35 29 -7 -2 -13 2 -14 7 -1 17 -16 36 -25 30 -5 -3 -12
0 -16 6 -4 8 -3 9 5 5 13 -8 11 23 -4 57 -6 15 -10 16 -16 5 -7 -11 -9 -11 -9
1 0 7 -6 11 -15 8 -8 -4 -17 -2 -20 3 -4 6 -11 10 -17 10 -7 0 -6 -5 1 -14 8
-10 9 -16 1 -21 -5 -3 -10 -5 -11 -3 -7 28 -5 40 8 45 12 5 12 7 1 14 -19 12
-30 11 -22 -3 4 -6 3 -8 -3 -5 -6 4 -18 -2 -28 -13 -13 -14 -22 -17 -31 -9 -8
6 -14 6 -18 0 -3 -5 -3 -11 1 -14 5 -2 2 -2 -6 0 -8 2 -11 -2 -8 -11 4 -10 1
-13 -8 -10 -14 6 -15 21 -2 40 4 7 -1 18 -10 25 -17 14 -20 14 -40 -3 -7 -6
-13 -7 -13 -2 0 5 -5 2 -11 -6 -9 -13 -10 -13 -6 0 2 8 9 15 15 15 7 0 12 3
12 8 0 4 0 12 0 18 0 8 -4 8 -14 0 -17 -15 -28 -1 -15 19 6 11 9 12 9 2 0 -7
4 -11 9 -8 12 8 5 58 -11 67 -8 6 -9 9 -2 9 7 0 14 6 17 13 3 8 -6 12 -25 13
-16 1 -25 -2 -18 -6 6 -4 10 -11 9 -16 -4 -21 2 -35 11 -29 6 3 10 -1 10 -10
0 -9 -4 -13 -10 -10 -5 3 -10 -1 -10 -9 0 -20 -17 -29 -26 -15 -4 7 -3 9 3 6
6 -4 13 2 16 13 5 21 -9 28 -15 8 -3 -8 -7 -6 -11 5 -3 9 -3 16 1 16 21 -3 24
3 6 16 -19 15 -19 15 1 9 18 -5 18 -4 3 6 -13 8 -28 8 -58 -1 -34 -10 -38 -14
-27 -27 10 -13 9 -14 -10 -3 -26 13 -84 4 -61 -10 8 -6 1 -7 -18 -3 -21 4 -68
-5 -145 -29 -279 -86 -480 -139 -507 -133 -65 16 -103 26 -187 50 -49 15 -97
28 -105 30 -8 3 -35 12 -60 21 -25 9 -55 18 -67 19 -13 2 -31 14 -41 26 -15
18 -21 20 -27 10 -5 -8 -4 -11 3 -6 6 3 13 2 17 -4 3 -5 -3 -10 -14 -10 -12 0
-21 4 -21 8 0 4 -8 8 -17 9 -21 1 -72 12 -90 18 -7 2 -13 -2 -13 -11 0 -19
-81 -55 -97 -42 -7 6 -14 5 -19 -3 -4 -8 -3 -9 4 -5 7 4 12 2 12 -3 0 -13 -10
-14 -30 -1 -10 6 -11 10 -2 10 6 0 12 5 12 11 0 6 -7 9 -15 5 -8 -3 -15 -1
-15 5 0 6 -5 7 -10 4 -8 -5 -7 -11 1 -21 8 -10 8 -14 0 -14 -10 0 -15 13 -12
33 0 4 -6 7 -15 7 -10 0 -12 4 -7 13 4 6 8 15 8 19 0 3 4 10 8 15 5 4 7 -2 5
-14 -1 -12 2 -21 7 -20 6 1 9 6 7 10 -1 5 2 6 7 3 5 -3 12 1 15 10 4 11 2 15
-8 11 -7 -3 -19 0 -25 6 -9 9 -14 8 -21 -3 -5 -8 -6 -18 -4 -22 3 -4 0 -8 -5
-8 -6 0 -11 9 -11 20 0 23 -10 26 -28 8 -7 -7 -12 -8 -12 -2 0 5 5 15 10 20 7
7 6 11 -4 11 -8 0 -13 -4 -11 -8 3 -3 -2 -13 -11 -20 -13 -11 -19 -8 -39 15
-13 15 -26 23 -29 18 -3 -6 1 -13 10 -16 8 -3 12 -11 8 -18 -5 -8 -13 -4 -27
13 -13 16 -18 18 -14 7 7 -21 3 -22 -24 -7 -11 5 -17 15 -13 22 4 7 3 9 -1 4
-5 -4 -18 1 -29 10 -12 10 -15 11 -9 3 13 -14 1 -40 -19 -40 -6 0 -4 8 3 17
10 11 10 14 2 9 -7 -4 -13 -2 -13 3 0 6 -5 11 -11 11 -8 0 -8 -4 0 -13 8 -11
5 -14 -19 -14 -18 0 -27 4 -23 11 3 6 3 8 -2 4 -4 -4 -15 -2 -24 5 -14 10 -14
10 -4 -3 10 -13 8 -18 -8 -28 -13 -8 -19 -9 -19 -1 0 6 -6 9 -12 6 -7 -2 -21
0 -30 5 -14 7 -16 5 -11 -9 6 -17 5 -17 -14 0 -11 9 -23 14 -28 10 -4 -5 -5 1
-2 12 7 20 7 20 -8 1 -8 -11 -16 -17 -16 -13 -1 4 -3 12 -4 17 -1 6 -3 13 -4
16 0 4 -7 1 -14 -5 -8 -6 -16 -9 -19 -6 -2 3 -5 -2 -5 -10 0 -11 4 -12 13 -4
8 7 14 7 19 -1 3 -5 1 -10 -5 -10 -6 0 -8 -5 -5 -10 7 -11 -30 -8 -41 3 -4 4
-13 2 -20 -4 -10 -8 -12 -6 -11 10 1 13 6 20 14 17 7 -3 15 -1 17 3 3 5 -5 8
-17 7 -12 -1 -28 7 -35 16 -16 22 -34 15 -25 -9 4 -10 2 -14 -4 -10 -6 4 -10
-1 -9 -11 0 -9 -3 -17 -9 -17 -5 0 -9 7 -9 17 1 10 -4 14 -12 11 -17 -6 -18 8
-1 27 10 12 9 12 -5 1 -16 -12 -18 -11 -19 5 0 12 -3 14 -6 6 -4 -9 -8 -10
-18 -2 -9 8 -15 8 -20 0z m14 -26 c-6 -7 -15 -11 -21 -8 -5 3 -4 12 3 20 6 7
15 11 21 8 5 -3 4 -12 -3 -20z m121 -25 c0 -5 6 -7 13 -3 6 4 4 -2 -6 -13 -18
-20 -52 -28 -39 -9 4 6 7 14 8 19 3 15 4 17 14 17 6 0 10 -5 10 -11z m413 -32
c-4 -6 0 -8 11 -4 9 4 15 3 12 -2 -6 -10 45 -8 62 3 6 3 13 2 16 -3 7 -11 45
-9 64 3 12 7 14 1 16 -49 0 -11 -5 -21 -12 -21 -6 -1 -14 -2 -17 -3 -3 0 -7 0
-8 2 -2 1 -11 -4 -20 -11 -8 -7 -18 -9 -21 -4 -3 5 -28 8 -56 7 -27 -1 -50 2
-50 7 0 5 4 7 9 3 5 -3 13 0 17 6 4 8 9 7 16 -2 8 -11 9 -10 4 4 -5 15 -3 16
14 7 15 -8 20 -8 20 2 1 9 5 7 14 -4 10 -13 16 -14 24 -6 13 13 45 20 37 9 -2
-4 2 -8 10 -8 10 0 10 5 -3 23 -16 22 -40 35 -27 15 3 -6 -4 -8 -16 -6 -17 4
-19 2 -9 -10 7 -9 8 -15 2 -15 -11 0 -34 25 -28 31 3 2 -16 4 -42 5 -25 0 -40
-2 -34 -4 7 -2 10 -8 7 -13 -4 -5 2 -6 12 -2 16 6 17 5 4 -11 -12 -15 -17 -15
-26 -4 -13 16 -35 21 -35 8 0 -5 7 -10 15 -10 17 0 10 -26 -10 -34 -8 -3 -12
2 -10 12 2 19 -15 62 -25 62 -4 0 -7 6 -7 14 0 8 6 12 12 10 7 -3 18 2 25 11
10 11 16 13 26 4 8 -6 11 -16 7 -22z m-279 5 c-4 11 -1 16 10 14 27 -4 27 -13
1 -30 -14 -9 -25 -15 -26 -14 0 2 -3 14 -5 28 -4 24 -4 24 11 5 11 -15 14 -16
9 -3z m196 14 c0 -3 -4 -8 -10 -11 -5 -3 -10 -1 -10 4 0 6 5 11 10 11 6 0 10
-2 10 -4z m-276 -14 c3 -5 -1 -9 -9 -9 -8 0 -12 4 -9 9 3 4 7 8 9 8 2 0 6 -4
9 -8z m182 -26 l1 -27 -22 21 c-12 11 -26 17 -30 13 -5 -5 -4 -1 3 9 19 24 46
16 48 -16z m1985 -19 c-10 -9 -11 -8 -5 6 3 10 9 15 12 12 3 -3 0 -11 -7 -18z
m-1735 1 c3 -4 -1 -5 -10 -4 -8 1 -18 5 -22 8 -3 4 1 5 10 4 8 -1 18 -5 22 -8z
m1661 -12 c0 -8 -6 -12 -15 -9 -11 5 -11 7 0 14 7 5 13 9 14 9 0 0 1 -6 1 -14z
m90 -33 c-9 -2 -15 -9 -12 -14 3 -5 -1 -6 -9 -3 -22 8 -10 24 17 23 17 -1 18
-2 4 -6z m-1742 -52 c-3 -6 4 -15 15 -21 11 -6 20 -15 20 -21 0 -5 -10 -1 -22
10 -11 11 -26 17 -32 14 -6 -4 -5 1 3 10 14 18 26 23 16 8z m-297 -53 c-1 -18
-3 -27 -5 -20 -3 6 -9 10 -13 7 -5 -3 -12 0 -16 6 -5 8 -3 9 5 5 8 -5 14 0 18
13 8 30 12 26 11 -11z m2269 9 c0 -8 -6 -14 -14 -14 -9 0 -10 4 -2 14 6 7 12
13 14 13 1 0 2 -6 2 -13z m-2326 -12 c5 4 6 -2 2 -11 -4 -12 -8 -14 -11 -5 -3
8 -8 7 -18 -6 -13 -17 -14 -17 -8 2 5 20 5 20 -10 1 -8 -10 -13 -22 -11 -26 2
-4 -2 -7 -10 -7 -12 0 -12 3 -2 16 10 12 9 14 -5 8 -10 -3 -18 -4 -18 -1 0 6
53 28 63 26 4 -1 7 4 8 11 0 9 2 9 6 -1 2 -6 9 -10 14 -7z m2416 -7 c0 -13 -1
-17 -4 -10 -3 6 -10 9 -16 5 -7 -4 -6 1 2 10 17 21 17 21 18 -5z m686 -11 c3
-7 -3 -13 -13 -13 -10 0 -16 6 -13 13 7 17 19 17 26 0z m-328 -16 c-3 -6 -11
-11 -16 -11 -5 0 -4 6 3 14 14 16 24 13 13 -3z m-2999 -16 c0 -15 -5 -22 -15
-20 -9 1 -24 -2 -33 -6 -11 -6 -19 -5 -24 3 -4 7 -4 10 1 6 4 -4 16 3 26 16
23 29 45 29 45 1z m3143 11 c11 -14 6 -15 -27 -7 -4 1 8 21 12 21 2 0 9 -6 15
-14z m-2927 -20 c7 4 8 2 4 -4 -4 -6 -13 -9 -21 -6 -8 4 -12 11 -8 17 5 8 8 7
11 -1 2 -7 9 -9 14 -6z m2642 -26 c-6 -5 -24 21 -24 34 0 6 6 1 14 -10 8 -10
12 -21 10 -24z m-2576 5 c-3 -3 -9 2 -12 12 -6 14 -5 15 5 6 7 -7 10 -15 7
-18z m72 10 c-5 -7 -9 -14 -7 -16 1 -2 0 -3 -2 -1 -11 7 -7 29 5 29 9 0 11 -4
4 -12z m2454 6 c3 -5 -1 -11 -9 -14 -9 -4 -12 -1 -8 9 6 16 10 17 17 5z m159
-6 c-3 -9 -8 -14 -10 -11 -3 3 -2 9 2 15 9 16 15 13 8 -4z m35 -10 c-3 -3 -9
2 -12 12 -6 14 -5 15 5 6 7 -7 10 -15 7 -18z m-3095 0 c-3 -9 -8 -14 -10 -11
-3 3 -2 9 2 15 9 16 15 13 8 -4z m3280 -1 c-2 -7 -12 -15 -20 -18 -12 -5 -13
-4 -5 7 7 8 10 16 7 19 -3 2 1 5 9 5 8 0 12 -6 9 -13z m-3692 -21 c13 -16 12
-17 -3 -4 -10 7 -18 15 -18 17 0 8 8 3 21 -13z m4013 -12 c20 -21 24 -29 12
-27 -20 3 -39 21 -42 41 -3 20 -2 20 30 -14z m276 -6 c0 -5 -5 -3 -10 5 -5 8
-10 20 -10 25 0 6 5 3 10 -5 5 -8 10 -19 10 -25z m-1050 15 c0 -5 -2 -10 -4
-10 -3 0 -8 5 -11 10 -3 6 -1 10 4 10 6 0 11 -4 11 -10z m857 -5 c0 -8 -4 -12
-9 -9 -5 3 -6 10 -3 15 9 13 12 11 12 -6z m-4052 -14 c3 -5 2 -12 -3 -15 -5
-3 -9 1 -9 9 0 17 3 19 12 6z m3750 -10 c3 -5 2 -12 -3 -15 -5 -3 -9 1 -9 9 0
17 3 19 12 6z m-3591 -31 c-6 -6 -10 -3 -10 10 0 13 4 16 10 10 7 -7 7 -13 0
-20z"/>
<path d="M663 945 c0 -8 4 -12 9 -9 5 3 6 10 3 15 -9 13 -12 11 -12 -6z"/>
<path d="M1054 927 c-12 -13 -13 -17 -3 -9 9 6 19 9 22 5 4 -3 -1 -11 -9 -18
-15 -11 -15 -12 0 -12 9 0 16 3 17 6 0 3 2 14 4 23 5 27 -10 30 -31 5z"/>
<path d="M1209 853 c-12 -16 -12 -17 2 -6 9 7 20 9 24 5 5 -4 5 -1 1 6 -9 16
-11 15 -27 -5z"/>
<path d="M880 925 c0 -2 6 -8 13 -14 10 -8 14 -7 14 2 0 8 -6 14 -14 14 -7 0
-13 -1 -13 -2z"/>
<path d="M561 686 c-10 -11 -9 -14 1 -12 14 2 23 15 15 22 -2 2 -10 -2 -16
-10z"/>
<path d="M4080 626 c0 -2 8 -10 18 -17 15 -13 16 -12 3 4 -13 16 -21 21 -21
13z"/>
<path d="M729 1003 c-13 -16 -12 -17 4 -4 9 7 17 15 17 17 0 8 -8 3 -21 -13z"/>
<path d="M2285 1011 c-3 -5 -2 -12 3 -15 5 -3 9 1 9 9 0 17 -3 19 -12 6z"/>
<path d="M3140 1013 c8 -3 19 -11 23 -17 6 -7 7 -6 4 4 -2 8 -12 16 -23 17
-13 2 -15 1 -4 -4z"/>
<path d="M3231 1001 c10 -21 9 -23 -6 -17 -15 5 -16 4 -5 -9 14 -17 0 -21 -16
-5 -7 7 -10 2 -10 -15 0 -14 4 -25 8 -25 4 0 8 5 8 10 0 6 5 10 10 10 6 0 9
-5 8 -12 -2 -7 2 -12 7 -13 6 0 15 -3 20 -6 6 -3 22 -5 37 -4 15 1 25 -2 22
-6 -3 -5 3 -6 13 -2 16 6 16 5 4 -11 -8 -9 -17 -13 -20 -8 -3 5 -17 8 -31 8
-14 0 -31 3 -38 8 -16 10 -15 -9 1 -23 10 -8 17 -7 26 2 7 6 12 8 11 2 -5 -22
1 -29 10 -15 7 11 10 11 10 2 0 -7 5 -10 10 -7 6 3 16 3 23 -2 16 -10 41 -14
32 -5 -4 4 -12 7 -17 7 -6 0 -13 6 -16 13 -5 17 19 11 36 -8 10 -11 12 -11 6
-1 -5 9 -3 12 4 7 21 -13 53 -16 46 -4 -5 7 -2 8 6 3 9 -5 11 -4 6 4 -4 6 -4
11 1 10 20 -3 25 2 13 16 -10 12 -16 13 -29 3 -14 -11 -14 -11 -4 3 7 9 10 18
7 21 -2 3 2 8 10 11 11 4 13 1 9 -11 -6 -15 -5 -15 10 -3 9 7 15 17 12 21 -6
10 14 24 22 16 3 -3 0 -13 -8 -23 -8 -9 -9 -14 -3 -10 12 7 13 -31 1 -50 -4
-6 -3 -15 3 -18 6 -4 9 -1 8 6 -2 8 7 14 22 15 42 2 43 3 19 22 -21 18 -26 30
-31 74 -2 16 -4 16 -20 1 -10 -9 -18 -12 -18 -6 0 5 -7 18 -15 29 -14 17 -15
16 -1 -13 14 -28 14 -32 0 -37 -24 -9 -28 -7 -15 7 8 10 7 14 -4 14 -8 0 -12
-4 -10 -8 3 -3 -4 -9 -15 -12 -21 -5 -28 7 -10 18 6 4 8 11 4 16 -8 14 -35
-10 -28 -25 3 -6 -1 -2 -10 8 -16 19 -12 41 5 31 5 -4 9 -1 9 4 0 6 -7 11 -15
11 -8 0 -15 -5 -15 -11 0 -8 -4 -8 -14 0 -10 8 -16 8 -25 -2 -6 -8 -9 -16 -6
-19 3 -3 -1 -11 -10 -18 -12 -10 -15 -10 -15 0 0 9 -4 9 -17 -1 -15 -12 -16
-12 -11 3 4 9 0 24 -8 35 -14 17 -14 16 -3 -6z m113 -42 c-6 -10 7 -13 48 -10
26 1 31 -11 14 -37 -11 -19 1 -27 18 -13 11 9 16 9 22 0 4 -7 3 -9 -3 -6 -6 4
-16 0 -23 -8 -12 -15 -44 -9 -34 6 3 6 -6 8 -20 5 -15 -3 -24 -1 -21 4 8 14
-34 32 -61 27 -14 -2 -27 0 -30 5 -3 4 -9 6 -13 4 -4 -3 -8 1 -8 7 0 7 9 14
20 14 14 1 17 -3 13 -15 -4 -9 5 -3 19 13 15 17 23 24 19 16 -5 -10 -3 -12 6
-6 10 6 12 4 7 -8 -3 -9 -1 -19 5 -23 7 -5 8 -2 3 6 -6 9 -4 11 4 5 10 -6 11
-3 2 13 -6 12 -16 24 -21 27 -6 4 -7 11 -4 17 5 7 14 3 26 -11 10 -13 15 -27
12 -32z m169 -47 c14 -15 14 -19 3 -19 -8 0 -17 9 -19 19 -3 10 -4 18 -3 18 2
0 10 -8 19 -18z"/>
<path d="M3340 930 c0 -4 6 -13 14 -19 11 -9 17 -8 29 3 8 8 17 13 21 11 3 -3
4 -2 1 2 -8 10 -65 13 -65 3z m40 -6 c0 -8 -19 -13 -24 -6 -3 5 1 9 9 9 8 0
15 -2 15 -3z"/>
<path d="M3683 1004 c0 -7 3 -13 6 -12 3 0 8 -1 11 -2 19 -7 41 -7 46 1 3 6
12 5 22 -3 15 -11 15 -11 5 3 -7 9 -9 20 -5 25 4 4 -1 2 -10 -5 -10 -7 -18
-10 -18 -6 0 4 -7 2 -15 -5 -13 -11 -19 -8 -17 11 1 3 -5 6 -12 6 -7 0 -13 -6
-13 -13z"/>
<path d="M4280 960 c-63 -33 -116 -57 -119 -55 -2 3 2 5 9 5 7 0 10 3 6 7 -4
4 -16 -3 -27 -17 -17 -22 -19 -23 -17 -5 2 14 -2 20 -14 19 -10 -1 -18 3 -18
10 0 6 -5 4 -10 -4 -8 -13 -10 -12 -10 3 0 16 -12 22 -34 18 -4 -1 -14 3 -21
9 -9 8 -15 8 -20 0 -3 -6 -11 -8 -16 -5 -5 3 -6 -1 -3 -9 7 -18 -17 -16 -42 4
-11 8 -16 11 -12 6 8 -10 -20 -41 -29 -32 -4 3 -3 6 2 6 4 0 1 8 -6 17 -12 15
-12 16 6 9 15 -5 17 -4 8 5 -13 13 -37 3 -28 -12 4 -5 2 -9 -3 -9 -16 0 -22
13 -11 27 12 14 11 15 -19 17 -11 0 -26 7 -34 13 -13 11 -15 9 -14 -10 1 -12
5 -28 9 -34 14 -22 -6 -14 -34 13 l-28 27 6 -24 6 -24 -22 20 c-12 11 -22 15
-21 10 5 -25 -2 -27 -27 -4 -15 13 -22 17 -15 8 11 -15 9 -17 -16 -15 -16 1
-38 8 -48 16 -18 14 -18 14 -5 -3 17 -21 58 -46 47 -28 -4 6 -3 11 2 11 5 0
14 -12 21 -27 11 -24 10 -25 -4 -13 -8 7 -18 10 -21 7 -4 -3 -18 5 -32 19 -15
13 -30 24 -35 24 -4 0 -6 4 -3 9 7 11 -22 36 -31 28 -3 -4 -12 -2 -19 4 -8 7
-14 7 -19 -1 -3 -5 1 -10 10 -10 9 0 14 -4 10 -9 -3 -5 -1 -12 4 -15 5 -4 8
-17 6 -31 -1 -14 2 -28 7 -31 5 -3 3 -13 -4 -22 -11 -13 -10 -15 4 -9 10 3 20
1 24 -5 5 -7 2 -8 -6 -3 -9 6 -11 4 -5 -4 6 -10 3 -11 -14 -1 -29 15 -63 21
-56 10 9 -15 -12 -20 -24 -6 -7 9 -8 17 -2 20 10 7 9 37 -2 36 -4 0 -10 0 -13
0 -4 0 -1 -6 5 -13 14 -18 -26 -56 -54 -51 -10 1 -24 -1 -30 -5 -5 -5 -17 -7
-25 -5 -8 1 -25 5 -37 8 -13 3 -25 1 -28 -4 -3 -5 -14 -7 -25 -5 -11 2 -22 0
-25 -6 -6 -8 8 -13 28 -10 5 1 6 -3 3 -8 -4 -5 -1 -11 6 -13 8 -3 6 -7 -5 -11
-10 -4 -16 -2 -14 5 1 6 -5 13 -13 15 -12 4 -12 3 -1 -5 9 -7 10 -12 2 -16 -6
-4 -11 -2 -11 5 0 8 -5 8 -17 -2 -17 -13 -17 -12 -1 6 12 15 13 23 5 30 -14
12 -47 13 -64 2 -7 -4 -10 -1 -8 10 1 10 8 17 14 16 12 -3 15 10 4 20 -3 4
-12 2 -20 -4 -7 -6 -13 -9 -13 -5 0 3 -9 -2 -19 -11 -11 -9 -17 -21 -15 -28 3
-6 -3 -18 -13 -26 -16 -13 -17 -12 -4 4 8 9 11 20 8 24 -4 3 -9 -1 -13 -10 -5
-13 -11 -10 -35 16 -16 17 -29 36 -29 42 0 5 6 3 13 -5 13 -17 60 -23 50 -7
-4 6 -1 7 7 2 9 -6 11 -4 5 6 -7 11 -5 11 11 -1 18 -14 18 -14 5 3 -11 14 -11
20 -1 32 11 14 15 13 27 -5 11 -15 18 -18 27 -11 7 6 17 7 21 3 5 -4 5 1 2 10
-3 10 -2 20 2 23 14 8 1 42 -15 42 -12 0 -12 -3 1 -17 13 -14 13 -17 0 -17 -8
0 -11 5 -8 10 4 6 0 8 -10 4 -11 -4 -22 2 -32 16 -8 12 -15 18 -15 13 0 -15
48 -65 55 -58 5 4 5 1 0 -7 -7 -12 -10 -12 -19 0 -6 8 -19 20 -28 27 -14 12
-16 10 -11 -10 l5 -23 -20 24 c-12 15 -22 20 -26 13 -3 -6 2 -15 11 -21 24
-14 7 -14 -19 0 -11 6 -18 7 -15 2 3 -4 -1 -14 -9 -21 -12 -11 -14 -10 -14 5
1 21 24 55 33 48 4 -3 5 -2 2 2 -3 4 -13 8 -21 9 -9 1 -13 0 -10 -3 3 -3 0
-15 -6 -27 -7 -11 -11 -25 -9 -31 2 -5 4 -25 6 -43 2 -28 25 -72 25 -47 0 4 9
0 20 -10 16 -15 18 -21 8 -34 -10 -12 -8 -12 8 1 16 14 23 15 34 5 10 -10 12
-9 7 6 -4 11 -3 16 4 11 6 -3 21 4 35 17 13 12 24 17 24 11 0 -6 6 -9 14 -6 9
3 13 -2 12 -18 -1 -18 4 -22 26 -23 29 0 63 -35 50 -51 -4 -5 7 4 24 19 17 15
37 27 44 25 7 -2 14 2 17 8 2 7 -6 11 -21 10 -13 0 -22 -5 -18 -10 3 -5 -1 -6
-8 -1 -8 5 -11 4 -6 -3 4 -7 -1 -9 -15 -7 -27 5 -41 18 -14 13 11 -1 20 3 21
10 3 25 4 26 16 14 17 -17 33 -15 18 3 -7 8 -11 15 -9 16 38 8 40 7 28 -7 -18
-21 2 -17 27 7 21 20 21 20 27 0 4 -15 0 -19 -14 -16 -12 3 -17 0 -13 -7 4 -7
3 -8 -4 -4 -8 5 -10 1 -5 -9 4 -12 8 -13 13 -5 9 15 20 13 43 -7 15 -15 16
-18 2 -33 -13 -15 -13 -17 0 -17 20 0 82 70 66 75 -14 5 -15 32 0 32 5 0 7 -4
4 -10 -3 -5 0 -7 9 -4 11 4 14 0 11 -14 -4 -22 29 -59 39 -44 8 14 39 8 44 -8
3 -8 0 -10 -9 -5 -8 5 -11 4 -6 -1 5 -5 30 -9 56 -9 42 0 47 2 47 22 0 18 -5
22 -23 19 -12 -3 -27 -7 -32 -10 -5 -3 -14 1 -21 9 -10 12 -9 16 5 21 10 4 21
1 26 -7 6 -10 9 -10 9 -1 0 6 6 12 14 12 8 0 17 4 20 9 3 5 -7 7 -22 6 -24 -2
-27 2 -29 27 0 23 2 26 13 18 7 -7 10 -19 7 -28 -6 -14 -4 -15 9 -5 8 7 19 9
23 5 5 -4 5 -1 0 7 -5 10 -4 12 4 7 6 -4 9 -12 6 -17 -4 -5 2 -6 12 -2 15 5
15 4 -2 -13 -12 -10 -15 -15 -8 -10 7 5 13 5 13 0 0 -5 5 -2 10 6 9 13 13 12
29 -8 17 -19 21 -20 34 -8 17 17 28 11 20 -10 -8 -21 -39 -17 -56 9 -14 20
-15 20 -13 2 2 -11 1 -14 -1 -7 -3 7 -9 10 -14 6 -5 -3 -6 -10 -3 -16 4 -6 2
-8 -4 -4 -6 3 -13 2 -16 -3 -4 -5 -2 -12 3 -15 5 -4 13 -1 16 4 5 8 13 6 26
-6 14 -12 16 -20 8 -30 -11 -14 6 -15 28 -1 7 4 18 -1 26 -13 13 -19 15 -19
21 -4 5 13 9 14 21 4 8 -7 13 -16 10 -20 -3 -5 -1 -11 4 -14 11 -7 9 13 -3 33
-7 11 -5 13 8 8 12 -5 15 -3 9 6 -4 6 -8 19 -8 27 0 8 -4 20 -7 26 -4 6 1 19
12 29 22 20 28 7 8 -14 -8 -8 -8 -11 -2 -8 13 7 38 -16 28 -26 -3 -3 4 -10 15
-16 16 -9 19 -9 15 2 -3 8 2 14 11 14 8 0 15 -4 15 -9 0 -5 5 -6 10 -3 6 4 18
1 26 -6 13 -10 12 -15 -7 -35 -12 -13 -27 -21 -33 -17 -6 3 -8 3 -4 -2 4 -4 3
-14 -3 -22 -9 -9 -8 -13 0 -13 6 0 11 5 11 11 0 8 4 8 14 0 12 -10 14 -9 11 6
-4 28 34 64 55 53 13 -7 20 -6 23 4 3 8 12 14 19 12 24 -3 38 -17 31 -29 -4
-7 0 -6 10 2 9 7 17 10 17 6 0 -4 6 -2 14 4 8 6 18 10 24 9 5 -2 10 2 11 7 1
6 -3 10 -8 10 -5 0 -13 4 -18 9 -4 5 -3 6 4 2 6 -3 15 -1 19 5 5 8 3 9 -6 4
-9 -6 -11 -4 -5 6 8 12 6 12 -8 0 -14 -11 -20 -11 -34 0 -11 9 -14 10 -9 2 5
-10 1 -11 -16 -4 -19 7 -26 4 -40 -18 -10 -14 -18 -21 -18 -15 0 6 -11 10 -25
9 -16 -2 -23 1 -19 7 5 7 2 8 -6 3 -8 -5 -11 -4 -7 2 7 12 -41 49 -59 45 -6
-1 -11 5 -11 13 0 8 7 14 16 13 9 -2 15 2 14 9 -2 7 6 17 17 23 14 7 20 7 20
0 0 -5 -5 -10 -11 -10 -5 0 -8 -4 -4 -9 3 -5 1 -13 -5 -16 -8 -5 -7 -11 1 -21
6 -7 16 -11 22 -7 6 4 7 1 2 -6 -4 -8 2 -7 17 3 14 9 28 13 33 9 4 -5 6 -3 2
2 -8 15 8 40 17 26 4 -6 3 -11 -2 -11 -5 0 -9 -7 -9 -15 0 -8 4 -15 9 -15 10
0 28 42 22 51 -2 4 7 7 20 7 16 0 23 -5 19 -14 -3 -7 -8 -12 -11 -11 -4 1 -8
-2 -9 -7 -1 -5 -7 -12 -13 -16 -8 -5 -7 -9 4 -13 8 -3 19 -1 23 6 8 12 9 17
12 37 0 6 6 10 12 10 5 0 7 -4 4 -10 -3 -6 1 -7 10 -3 12 4 13 8 5 13 -9 6 -9
9 1 13 10 4 8 6 -4 6 -10 1 -16 5 -13 10 8 13 27 9 65 -15 26 -17 29 -22 17
-27 -9 -4 -16 -12 -16 -18 0 -8 5 -7 17 2 11 10 14 10 9 2 -12 -20 5 -15 24 7
17 19 18 19 25 3 12 -28 14 -44 4 -37 -5 3 -9 -1 -9 -8 0 -10 -2 -10 -9 1 -6
9 -11 10 -15 2 -4 -6 -4 -11 0 -11 3 0 2 -6 -3 -12 -6 -7 -9 -21 -8 -30 2 -10
-1 -18 -6 -18 -5 0 -9 4 -9 8 0 5 -7 9 -15 9 -9 0 -14 -6 -11 -12 2 -7 -1 -19
-7 -26 -7 -7 -3 -6 8 3 15 13 25 14 39 6 13 -7 17 -7 12 0 -12 20 15 24 41 7
20 -14 27 -15 34 -4 9 16 1 32 -12 23 -5 -3 -6 -10 -3 -16 4 -7 2 -8 -5 -4 -6
4 -9 12 -6 17 3 5 -1 6 -9 3 -21 -8 -20 -1 3 41 16 31 19 33 24 15 3 -11 1
-23 -4 -26 -5 -3 -9 -10 -9 -16 0 -6 3 -8 7 -5 3 4 13 1 21 -6 13 -10 15 -9 9
5 -4 13 -2 15 11 11 15 -6 15 -5 3 10 -7 9 -10 17 -5 17 4 0 0 6 -11 13 -17
13 -16 14 6 12 13 -1 23 -6 22 -11 -1 -5 2 -13 6 -19 11 -16 6 -40 -8 -37 -7
1 -10 -2 -6 -8 4 -6 1 -9 -6 -8 -6 2 -14 -3 -17 -11 -2 -8 0 -11 6 -7 6 3 13
2 17 -3 3 -6 -3 -8 -15 -6 -11 2 -26 -2 -34 -10 -8 -9 -17 -10 -23 -4 -6 6
-15 3 -26 -9 -15 -17 -14 -18 18 -18 18 0 32 4 29 7 -6 10 17 24 41 24 13 0
19 6 17 18 -2 9 3 20 11 23 10 4 14 38 16 149 1 80 1 145 -1 144 -2 0 -55 -27
-118 -59z m-706 2 c-1 -12 3 -19 8 -16 5 3 20 -4 33 -16 18 -17 22 -27 15 -40
-5 -10 -8 -27 -5 -38 2 -11 -5 -28 -16 -38 -18 -16 -18 -19 -3 -35 9 -10 21
-16 27 -12 6 4 7 1 2 -6 -5 -9 -12 -8 -29 6 -22 20 -34 22 -53 10 -13 -8 -28
10 -28 36 0 10 -7 22 -15 27 -12 8 -13 11 -2 22 11 11 13 10 10 -2 -2 -10 4
-15 20 -14 12 1 22 -3 22 -7 0 -5 -4 -9 -9 -9 -11 0 -9 -26 3 -37 4 -4 7 -3 6
2 -5 21 0 36 10 30 5 -3 6 -13 3 -22 -6 -15 -5 -16 9 -3 14 13 14 16 0 26 -15
11 -8 39 8 29 5 -3 11 -1 15 5 3 5 -1 10 -9 10 -18 0 -40 36 -41 65 0 11 -3
25 -7 31 -9 13 1 26 16 21 6 -2 10 -13 10 -25z m279 3 c14 3 16 0 7 -9 -13
-17 13 -41 32 -30 7 4 10 4 6 -1 -4 -4 -2 -15 5 -23 10 -13 9 -14 -3 -7 -8 5
-22 8 -32 7 -9 -2 -19 2 -23 8 -5 8 -11 7 -23 -2 -13 -11 -14 -11 -4 8 6 12 8
24 5 28 -4 4 -8 13 -9 22 -2 10 1 12 9 6 7 -5 20 -8 30 -7z m-127 -24 c8 7 14
7 19 -1 5 -8 11 -8 19 -1 9 8 17 6 29 -7 15 -17 17 -21 17 -42 0 -5 5 -10 10
-10 6 0 9 3 9 8 -3 19 2 23 16 12 8 -7 21 -10 29 -7 8 3 17 3 20 -1 12 -12 35
-10 30 2 -7 17 22 41 31 26 3 -6 11 -7 17 -4 6 4 8 3 5 -3 -4 -6 5 -15 19 -22
16 -7 22 -15 17 -24 -4 -6 -9 -21 -10 -32 l-3 -20 12 20 c17 27 17 56 1 82 -9
15 -9 24 -2 28 6 4 13 -3 16 -14 5 -20 6 -20 18 -4 11 15 13 15 24 -5 8 -15
18 -20 38 -17 16 2 22 2 15 -2 -11 -4 -10 -8 2 -22 14 -15 13 -17 -4 -17 -10
0 -16 4 -14 8 9 14 -13 9 -25 -5 -6 -8 -7 -18 -3 -23 4 -5 -4 0 -17 11 -14 11
-21 14 -17 8 4 -7 2 -13 -4 -13 -6 0 -9 -4 -5 -9 3 -6 -2 -14 -12 -19 -16 -7
-27 -8 -49 -3 -3 0 4 15 16 31 15 21 18 30 8 32 -7 0 -17 2 -23 2 -5 1 -16 5
-23 10 -11 6 -12 1 -9 -23 3 -18 1 -29 -4 -25 -5 3 -7 9 -4 13 2 5 -9 7 -25 6
-17 -1 -33 1 -36 6 -3 5 -10 7 -15 4 -5 -4 -9 -1 -9 5 0 6 -5 8 -11 4 -8 -4
-8 -9 -1 -13 7 -4 8 -12 2 -21 -8 -13 -10 -12 -10 3 0 9 -5 17 -12 17 -6 0 -8
-3 -5 -7 4 -3 1 -13 -6 -21 -10 -13 -9 -14 2 -7 9 5 18 2 27 -9 8 -11 14 -13
19 -7 3 6 2 11 -4 11 -6 0 -7 8 -4 17 6 15 7 15 14 -3 7 -19 8 -19 8 1 1 14 4
16 13 7 8 -8 15 -9 25 -1 9 8 13 8 13 0 0 -6 -6 -11 -12 -11 -10 0 -10 -2 0
-9 8 -4 14 -12 15 -17 1 -5 7 -8 14 -8 6 1 9 -5 6 -14 -5 -11 -3 -13 8 -7 8 5
11 5 6 -1 -5 -5 -10 -7 -11 -4 -2 3 -11 -2 -22 -10 -10 -8 -16 -10 -12 -6 4 5
3 15 -3 23 -6 7 -8 13 -5 13 4 0 2 9 -5 21 l-11 21 -24 -23 c-13 -12 -20 -27
-16 -33 11 -18 11 -37 -1 -29 -7 4 -8 0 -3 -13 4 -10 4 -15 0 -11 -4 4 -13 2
-19 -3 -9 -7 -16 -6 -25 5 -10 12 -16 13 -29 3 -9 -7 -13 -8 -8 -3 4 4 -1 18
-10 29 -18 21 -18 21 3 3 20 -16 21 -16 35 0 38 46 40 51 28 59 -8 5 -10 3 -4
-7 6 -11 5 -12 -5 -2 -9 8 -18 9 -25 3 -7 -5 -27 1 -55 19 -25 15 -50 26 -56
24 -6 -2 -17 3 -24 12 -7 8 -10 16 -6 16 3 1 15 3 26 4 11 1 22 3 25 4 3 0 1
9 -4 20 -12 21 -2 36 13 21 6 -6 14 -6 22 1z m-643 -36 c-18 -31 -25 -35 -46
-23 -18 9 -19 12 -5 22 20 15 59 15 51 1z m930 1 c4 -10 1 -13 -9 -9 -15 6
-19 23 -5 23 5 0 11 -7 14 -14z m-538 -90 c1 -27 -4 -41 -24 -58 -14 -13 -21
-16 -15 -8 6 8 10 25 9 37 -1 12 1 20 5 18 3 -2 7 6 7 18 2 17 0 19 -7 7 -7
-11 -10 -11 -10 -2 0 7 -5 10 -11 6 -6 -3 -7 -9 -3 -13 15 -10 16 -33 2 -29
-19 7 -17 30 6 56 24 27 38 17 41 -32z m-155 28 c0 -8 -19 -13 -24 -6 -3 5 1
9 9 9 8 0 15 -2 15 -3z m-180 -20 c0 -8 -19 -13 -24 -6 -3 5 1 9 9 9 8 0 15
-2 15 -3z m160 -60 c0 -8 -19 -13 -24 -6 -3 5 1 9 9 9 8 0 15 -2 15 -3z m370
2 c0 -3 -4 -8 -10 -11 -5 -3 -10 -1 -10 4 0 6 5 11 10 11 6 0 10 -2 10 -4z
m483 -5 c5 -1 7 -6 5 -13 -6 -17 -35 -18 -49 -2 -6 8 -16 11 -22 7 -5 -3 -7
-2 -4 4 5 8 24 9 70 4z m117 -11 c-6 -11 -13 -20 -16 -20 -2 0 0 9 6 20 6 11
13 20 16 20 2 0 0 -9 -6 -20z m24 -78 c3 -5 -1 -9 -9 -9 -8 0 -12 4 -9 9 3 4
7 8 9 8 2 0 6 -4 9 -8z"/>
<path d="M3595 923 c1 -10 -2 -23 -7 -30 -6 -8 -4 -11 8 -9 21 3 27 31 9 46
-10 9 -13 7 -10 -7z"/>
<path d="M3565 921 c-3 -5 -2 -12 3 -15 5 -3 9 1 9 9 0 17 -3 19 -12 6z"/>
<path d="M3605 850 c-4 -6 -12 -7 -18 -3 -7 4 -6 -1 2 -10 15 -19 24 -16 27 8
3 17 -2 19 -11 5z"/>
<path d="M3837 938 c19 -21 31 -25 14 -5 -6 8 -9 16 -6 19 3 2 -2 5 -10 5 -13
0 -13 -3 2 -19z"/>
<path d="M3695 928 c4 -10 11 -18 16 -18 5 0 9 -5 9 -11 0 -5 -4 -8 -9 -5 -5
3 -11 -1 -15 -9 -8 -22 29 -39 44 -20 16 19 4 33 -12 17 -20 -20 -29 -14 -10
6 9 11 22 15 27 11 10 -7 17 -9 33 -9 4 0 8 -10 9 -22 l2 -23 -13 23 -12 23
-11 -24 c-13 -27 -6 -42 11 -28 11 9 17 11 35 11 10 0 9 19 -2 38 -5 6 -5 17
-2 22 4 6 1 9 -7 8 -7 -2 -12 3 -10 11 3 12 0 12 -12 2 -10 -8 -16 -9 -21 -1
-5 8 -11 8 -19 1 -9 -7 -16 -7 -25 2 -10 9 -11 8 -6 -5z m67 -13 c3 0 9 -3 13
-7 6 -5 -19 -4 -35 2 -3 1 -9 2 -13 1 -5 -1 -6 3 -2 9 3 6 12 7 18 3 7 -4 15
-8 19 -8z"/>
<path d="M3934 908 c-4 -7 -4 -10 1 -6 4 4 15 2 24 -5 14 -11 14 -10 2 6 -16
20 -18 21 -27 5z"/>
<path d="M4056 911 c3 -7 0 -18 -7 -23 -11 -7 -9 -8 5 -4 14 5 17 2 12 -11 -6
-15 -4 -15 14 2 21 19 27 30 9 20 -6 -4 -17 1 -25 11 -9 11 -12 13 -8 5z"/>
<path d="M3656 878 c3 -5 10 -6 15 -3 13 9 11 12 -6 12 -8 0 -12 -4 -9 -9z"/>
<path d="M3822 796 c4 -5 -2 -16 -13 -25 -19 -15 -19 -18 -6 -29 10 -9 17 -10
22 -2 3 5 3 10 -1 10 -4 0 0 6 10 13 17 12 17 14 -1 27 -10 8 -15 11 -11 6z
m-5 -41 c0 -8 -4 -12 -9 -9 -5 3 -6 10 -3 15 9 13 12 11 12 -6z"/>
<path d="M3046 901 c-4 -5 -2 -12 3 -15 5 -4 12 -2 15 3 4 5 2 12 -3 15 -5 4
-12 2 -15 -3z"/>
<path d="M3446 852 c-3 -5 1 -9 9 -9 8 0 12 4 9 9 -3 4 -7 8 -9 8 -2 0 -6 -4
-9 -8z"/>
<path d="M3456 783 c-6 -14 -5 -15 5 -6 7 7 10 15 7 18 -3 3 -9 -2 -12 -12z"/>
<path d="M4114 752 c4 -3 14 -7 22 -8 9 -1 13 0 10 4 -4 3 -14 7 -22 8 -9 1
-13 0 -10 -4z"/>
<path d="M923 1003 c4 -3 -1 -16 -10 -27 -18 -21 -18 -21 4 -2 20 16 23 36 6
36 -4 0 -3 -3 0 -7z"/>
<path d="M2318 1003 c6 -2 9 -9 6 -14 -8 -14 14 -38 33 -35 9 2 23 14 31 27
14 24 14 24 -4 3 -22 -23 -45 -26 -52 -5 -3 9 0 11 9 5 12 -7 12 -5 0 9 -7 9
-19 17 -25 16 -7 0 -6 -2 2 -6z"/>
<path d="M3646 998 c3 -5 10 -6 15 -3 13 9 11 12 -6 12 -8 0 -12 -4 -9 -9z"/>
<path d="M501 989 c-1 -17 -31 -22 -31 -5 0 6 -4 5 -9 -2 -10 -17 -21 -17 -31
-2 -5 9 -13 9 -27 1 -11 -5 -24 -7 -28 -3 -5 4 -5 2 -1 -5 3 -6 2 -14 -3 -17
-5 -4 -8 -17 -6 -31 1 -14 -1 -25 -5 -25 -4 0 -7 -7 -7 -15 0 -9 5 -14 11 -12
6 3 10 11 8 18 -2 9 2 8 15 -4 15 -13 22 -14 33 -4 7 6 10 7 7 2 -3 -6 4 -12
15 -12 11 -1 17 1 14 4 -3 4 2 15 11 25 10 11 13 18 8 16 -10 -3 -15 4 -15 24
0 6 7 3 15 -8 15 -19 15 -19 9 1 -5 16 -4 17 4 5 7 -9 7 -19 2 -26 -10 -11 -3
-24 12 -24 5 0 7 4 3 9 -3 5 0 13 6 17 8 4 9 3 5 -5 -5 -7 -2 -10 5 -9 7 2 14
-4 15 -12 4 -45 4 -45 24 -21 11 13 20 18 20 13 0 -6 -5 -14 -10 -17 -6 -4 -8
-11 -5 -16 6 -8 23 -8 64 3 8 1 20 -8 28 -22 7 -14 13 -19 13 -11 0 7 6 11 14
8 8 -3 17 1 20 9 4 11 -1 13 -19 10 -14 -3 -28 0 -31 6 -4 6 -2 8 4 4 10 -6
26 10 27 26 0 3 4 10 9 15 5 5 6 3 2 -4 -4 -7 -2 -13 3 -13 6 0 11 7 11 15 0
16 -12 20 -24 8 -4 -4 -24 -8 -44 -8 -31 0 -37 -4 -36 -21 1 -11 -5 -21 -12
-21 -9 0 -11 4 -4 12 12 14 -22 50 -47 50 -9 0 -17 8 -19 18 -1 11 -6 22 -10
25 -4 4 -4 -1 -1 -10 4 -10 2 -18 -2 -18 -14 0 -20 27 -9 38 6 6 8 16 5 24 -4
9 -6 9 -6 -3z m-85 -31 c-1 -13 -8 -23 -14 -23 -6 0 -14 -4 -19 -9 -5 -6 -2
-6 6 -1 10 6 13 4 9 -7 -4 -8 -1 -15 7 -15 8 0 11 7 7 16 -5 13 -3 14 9 4 13
-10 16 -10 16 2 0 8 -5 11 -10 8 -5 -3 -5 2 1 13 5 10 22 19 36 20 14 0 23 -3
20 -8 -3 -4 -9 -6 -14 -3 -5 3 -14 -3 -20 -14 -7 -13 -7 -22 0 -26 15 -9 1
-27 -16 -21 -7 3 -16 1 -20 -5 -9 -15 -44 20 -41 40 4 25 17 42 28 36 5 -4 9
-1 9 4 0 6 2 11 5 11 3 0 3 -10 1 -22z m149 -57 c3 -5 2 -12 -3 -15 -5 -3 -9
1 -9 9 0 17 3 19 12 6z m81 -30 c2 -8 1 -8 -3 0 -4 8 -7 8 -13 -1 -5 -9 -9 -8
-13 3 -4 10 0 14 11 13 9 -2 17 -8 18 -15z"/>
<path d="M386 952 c-3 -5 1 -9 9 -9 8 0 12 4 9 9 -3 4 -7 8 -9 8 -2 0 -6 -4
-9 -8z"/>
<path d="M1085 990 c-3 -6 1 -7 9 -4 18 7 21 14 7 14 -6 0 -13 -4 -16 -10z"/>
<path d="M1869 988 c14 -19 32 -15 30 5 0 8 -2 8 -6 -1 -4 -10 -8 -10 -21 0
-15 12 -16 11 -3 -4z"/>
<path d="M3075 990 c6 -10 4 -12 -11 -6 -15 6 -17 5 -6 -5 9 -9 15 -10 23 -2
8 8 7 13 -2 18 -8 6 -10 4 -4 -5z"/>
<path d="M1777 977 c-3 -8 1 -14 8 -14 7 0 11 6 8 14 -3 7 -6 13 -8 13 -2 0
-5 -6 -8 -13z"/>
<path d="M3953 972 c2 -12 6 -24 10 -28 3 -4 4 4 2 16 -6 30 -16 40 -12 12z"/>
<path d="M339 973 c-1 -5 -1 -11 0 -15 0 -4 -8 -12 -20 -18 -17 -10 -18 -14
-7 -28 11 -14 10 -15 -7 -8 -35 14 -54 15 -61 5 -4 -6 -18 1 -35 17 -16 15
-32 24 -36 21 -3 -4 -2 -7 3 -7 5 0 10 -14 11 -30 1 -17 -2 -30 -8 -30 -6 0
-7 -5 -3 -11 10 -17 13 -69 3 -63 -5 3 -9 12 -9 20 0 8 -5 14 -11 14 -5 0 -7
-4 -4 -10 3 -5 0 -7 -8 -4 -8 3 -14 -1 -14 -10 0 -8 7 -15 16 -15 39 -2 51 -5
51 -14 0 -5 6 -5 13 2 10 8 19 7 33 -5 13 -11 14 -14 4 -11 -10 3 -16 -2 -17
-14 -1 -11 2 -17 7 -14 5 3 11 1 14 -4 13 -20 -25 -4 -40 17 -8 12 -19 20 -24
17 -5 -3 -11 -1 -15 5 -4 6 -11 8 -16 4 -5 -3 -6 -10 -3 -16 4 -7 2 -8 -5 -4
-6 4 -9 12 -6 17 4 5 1 9 -5 9 -6 0 -10 -8 -8 -17 2 -13 -3 -18 -19 -17 -13 1
-20 -3 -16 -9 4 -6 1 -7 -7 -2 -8 5 -11 4 -7 -1 3 -6 2 -16 -4 -24 -7 -13 -9
-13 -9 0 0 13 -1 13 -10 0 -5 -8 -10 -10 -10 -4 0 6 6 17 14 23 8 7 13 18 12
25 -2 17 -26 46 -36 46 -10 0 -7 -27 5 -37 4 -4 5 -2 0 6 -6 10 -4 12 4 7 9
-6 9 -11 0 -22 -6 -8 -9 -14 -6 -14 3 0 2 -12 -2 -27 -8 -28 -7 -28 36 -28 34
0 40 2 28 11 -16 12 -21 29 -6 19 5 -3 12 -1 16 4 3 5 14 8 25 6 11 -2 19 -1
19 3 -3 20 3 21 23 3 11 -11 25 -18 30 -15 5 3 15 1 22 -5 10 -8 18 -6 31 9
10 11 21 17 26 15 4 -3 11 0 14 5 5 8 13 6 26 -6 10 -9 16 -21 12 -27 -3 -5
-1 -7 5 -3 22 13 23 -16 2 -39 -13 -13 -17 -25 -11 -29 5 -4 12 -2 16 4 4 6
12 7 18 4 7 -4 9 -3 4 1 -4 5 0 17 10 27 9 10 13 18 8 18 -4 0 -2 6 4 14 9 10
9 16 1 21 -8 5 -8 11 1 21 6 7 15 11 20 8 5 -3 9 -2 8 3 -5 30 2 35 21 18 18
-17 19 -20 5 -35 -13 -15 -14 -19 -1 -29 10 -8 16 -9 21 -1 3 6 10 8 15 5 7
-4 6 24 0 33 -2 1 -3 6 -4 12 0 5 -6 14 -13 21 -9 9 -8 18 5 37 12 19 13 24 3
18 -10 -7 -12 -5 -6 3 5 9 14 6 32 -11 13 -13 26 -22 29 -20 13 8 22 -1 19
-18 -3 -17 -1 -18 16 -7 24 15 24 20 -1 42 -12 11 -20 13 -20 6 0 -9 -4 -8
-14 1 -7 7 -12 24 -11 38 2 21 1 22 -10 7 -11 -15 -14 -16 -25 -2 -13 16 -25
12 -25 -8 0 -14 -63 -18 -71 -5 -3 5 -12 4 -19 -2 -8 -7 -18 -9 -23 -6 -10 6
-9 82 1 92 4 4 7 11 7 16 0 10 -20 11 -21 1z m-3 -62 c0 -16 -4 -27 -8 -25 -5
3 -8 -3 -8 -13 0 -11 -6 -25 -12 -32 -7 -8 -1 -6 14 3 27 18 43 10 29 -13 -6
-9 -10 -10 -15 -2 -4 6 -12 9 -17 5 -5 -3 -7 -9 -5 -13 3 -3 -4 -7 -14 -7 -10
0 -16 5 -12 11 3 5 -2 4 -11 -4 -16 -12 -22 -8 -18 12 1 5 -4 5 -10 1 -8 -5
-9 -3 -4 7 5 8 5 11 0 7 -4 -4 -14 -3 -22 3 -8 7 -13 8 -13 1 0 -5 7 -13 16
-16 8 -3 12 -11 8 -17 -4 -7 -3 -9 4 -5 6 3 13 2 17 -4 4 -6 10 -8 15 -5 4 3
10 -1 13 -9 6 -16 -21 -16 -31 0 -4 6 -18 10 -32 10 -21 0 -24 4 -25 32 0 19
3 35 7 38 4 3 3 16 -2 30 -7 17 -7 23 0 19 6 -3 10 -12 10 -20 0 -14 16 -15
38 -1 8 4 11 3 10 -5 -2 -6 3 -14 10 -16 6 -3 10 1 9 9 -2 7 -2 10 0 5 3 -4
10 -4 15 -1 7 4 8 2 4 -4 -9 -16 7 -15 22 0 9 9 9 15 -1 27 -9 12 -9 13 1 7 6
-4 12 -2 12 3 0 6 2 11 4 11 2 0 3 -13 2 -29z m58 -57 c3 -8 2 -12 -4 -9 -6 3
-10 1 -10 -4 0 -6 5 -11 10 -11 6 0 10 -7 10 -15 0 -8 4 -15 9 -15 5 0 7 13 6
28 -1 19 2 29 11 29 8 0 14 -4 14 -9 0 -4 -5 -8 -11 -8 -5 0 -7 -5 -3 -11 5
-8 12 -5 23 10 16 21 17 21 18 2 1 -12 -3 -23 -8 -27 -6 -4 -3 -14 8 -27 18
-22 18 -22 -7 0 -22 19 -27 20 -44 7 -11 -8 -16 -14 -11 -14 4 0 1 -8 -8 -18
-12 -13 -14 -21 -6 -29 7 -7 7 -13 0 -17 -5 -4 -25 7 -45 24 -19 17 -37 26
-41 21 -3 -6 -12 -8 -20 -4 -8 3 -15 0 -15 -7 0 -6 -5 -8 -10 -5 -13 8 6 35
23 32 6 -1 11 5 12 13 0 8 7 15 15 15 8 1 14 7 12 15 -2 10 0 11 11 2 16 -13
28 -4 40 31 8 21 13 22 21 1z m123 9 c-4 -3 -1 -13 6 -22 11 -14 10 -14 -5 -2
-16 12 -16 31 -1 31 4 0 3 -3 0 -7z m58 -42 c3 -5 2 -12 -3 -15 -5 -3 -9 1 -9
9 0 17 3 19 12 6z m-381 -56 c5 0 10 -8 12 -17 3 -23 2 -23 -27 9 -13 14 -17
22 -9 17 8 -5 19 -9 24 -9z m285 -31 c-6 -7 -15 -11 -21 -8 -5 3 -4 12 3 20 6
7 15 11 21 8 5 -3 4 -12 -3 -20z m-89 -38 c0 -2 -8 -10 -17 -17 -16 -13 -17
-12 -4 4 13 16 21 21 21 13z"/>
<path d="M208 872 c-7 -10 -8 -14 -4 -10 5 4 15 3 23 -3 7 -6 13 -8 13 -4 0 4
7 2 15 -5 8 -7 12 -17 9 -22 -4 -6 5 -2 20 7 21 14 24 21 15 31 -6 8 -15 11
-20 8 -5 -3 -15 -2 -21 3 -22 13 -37 12 -50 -5z m58 -14 c19 -23 19 -23 -2 -5
-11 9 -24 14 -29 10 -4 -5 -5 -2 -1 5 9 16 10 16 32 -10z"/>
<path d="M203 825 c0 -8 4 -12 9 -9 5 3 6 10 3 15 -9 13 -12 11 -12 -6z"/>
<path d="M369 828 c0 -2 -3 -14 -5 -28 -3 -13 -9 -29 -14 -34 -6 -6 -8 -2 -5
12 4 23 -10 39 -20 22 -4 -6 -12 -7 -18 -4 -7 4 -9 4 -5 -1 4 -4 2 -15 -5 -24
-10 -14 -10 -14 4 -4 13 11 19 9 35 -8 10 -11 28 -25 39 -30 18 -9 18 -9 3 4
-15 12 -15 14 1 24 18 11 25 43 9 43 -5 0 -7 4 -3 9 3 5 1 12 -5 16 -5 3 -10
5 -11 3z m-32 -43 c0 -8 -4 -12 -9 -9 -5 3 -6 10 -3 15 9 13 12 11 12 -6z m46
0 c4 -8 3 -16 -1 -19 -4 -3 -9 4 -9 15 -2 23 3 25 10 4z"/>
<path d="M2173 956 c-10 -12 -11 -15 -3 -9 10 9 17 10 27 2 7 -7 13 -10 14 -8
6 30 5 36 -7 36 -8 0 -22 -10 -31 -21z"/>
<path d="M556 962 c-3 -5 1 -9 9 -9 8 0 12 4 9 9 -3 4 -7 8 -9 8 -2 0 -6 -4
-9 -8z"/>
<path d="M1717 944 c-23 -12 -30 -34 -11 -34 3 0 2 5 -1 10 -3 6 -2 10 2 10 5
0 18 7 29 15 25 19 17 18 -19 -1z"/>
<path d="M1886 948 c3 -5 10 -6 15 -3 13 9 11 12 -6 12 -8 0 -12 -4 -9 -9z"/>
<path d="M2085 950 c3 -5 8 -10 11 -10 2 0 4 5 4 10 0 6 -5 10 -11 10 -5 0 -7
-4 -4 -10z"/>
<path d="M2389 958 c-5 -18 -6 -38 -1 -34 7 8 12 36 6 36 -2 0 -4 -1 -5 -2z"/>
<path d="M220 941 c0 -6 4 -13 10 -16 6 -3 7 1 4 9 -7 18 -14 21 -14 7z"/>
<path d="M2014 936 c1 -8 5 -18 8 -22 4 -3 5 1 4 10 -1 8 -5 18 -8 22 -4 3 -5
-1 -4 -10z"/>
<path d="M2411 944 c-1 -6 5 -17 12 -23 11 -8 18 -6 33 11 16 19 16 20 2 9
-15 -11 -18 -11 -18 0 0 12 -2 12 -9 0 -7 -11 -9 -11 -14 0 -3 8 -6 9 -6 3z"/>
<path d="M130 929 c-12 -9 -12 -10 4 -5 11 4 23 1 28 -6 12 -20 9 -32 -5 -19
-11 8 -16 5 -26 -15 -9 -20 -9 -25 1 -21 7 2 12 9 11 15 -2 6 3 9 11 6 20 -8
29 12 16 36 -12 23 -19 24 -40 9z"/>
<path d="M1378 933 c7 -3 16 -2 19 1 4 3 -2 6 -13 5 -11 0 -14 -3 -6 -6z"/>
<path d="M2187 929 c7 -7 15 -10 18 -7 3 3 -2 9 -12 12 -14 6 -15 5 -6 -5z"/>
<path d="M1404 915 c-4 -8 -14 -15 -23 -15 -14 0 -14 2 -1 10 9 6 10 10 3 10
-19 0 -26 -20 -9 -26 9 -3 13 -10 10 -15 -3 -5 0 -8 8 -7 7 2 12 -4 10 -12 -2
-13 0 -12 10 1 7 9 19 14 27 11 8 -3 5 5 -7 19 -17 17 -19 25 -10 31 10 6 10
8 0 8 -7 0 -15 -7 -18 -15z m16 -25 c0 -5 -5 -10 -11 -10 -5 0 -7 5 -4 10 3 6
8 10 11 10 2 0 4 -4 4 -10z"/>
<path d="M1661 916 c-9 -11 -9 -16 1 -22 7 -4 10 -4 6 1 -4 4 -3 14 3 22 6 7
9 13 6 13 -2 0 -10 -6 -16 -14z"/>
<path d="M1769 925 c-1 -3 -3 -9 -4 -15 -1 -5 -3 -13 -4 -17 -1 -5 -6 -1 -11
7 -7 11 -10 11 -10 2 0 -7 -4 -11 -9 -7 -5 3 -13 0 -17 -6 -4 -7 -3 -9 4 -5 6
3 15 -2 21 -11 7 -12 10 -13 11 -4 0 10 3 11 14 2 10 -8 16 -9 21 -1 4 6 3 9
-2 8 -7 -3 -15 7 -12 15 4 14 6 37 3 37 -2 0 -5 -2 -5 -5z"/>
<path d="M1891 917 c-6 -6 -11 -16 -11 -21 0 -6 5 -4 10 4 11 18 31 20 43 5 5
-6 7 -5 5 4 -5 18 -33 22 -47 8z"/>
<path d="M1954 919 c-4 -7 -3 -9 4 -5 5 3 13 0 15 -6 4 -9 6 -10 6 -1 1 17
-16 25 -25 12z"/>
<path d="M2293 908 c1 -15 3 -25 6 -23 2 3 9 0 16 -5 8 -7 12 -5 12 5 0 8 -4
12 -9 9 -4 -3 -12 5 -17 18 -10 22 -10 22 -8 -4z"/>
<path d="M3192 912 c15 -18 19 -40 8 -47 -5 -3 -7 3 -5 14 3 14 -2 19 -15 18
-14 -1 -16 -4 -9 -14 6 -7 8 -16 5 -22 -3 -5 2 -8 11 -6 10 1 23 -2 30 -7 7
-5 14 -5 17 1 4 5 15 8 26 6 12 -2 18 0 15 6 -4 5 -10 7 -14 4 -11 -6 -43 30
-39 45 2 7 -7 13 -19 15 -19 1 -21 -1 -11 -13z m44 -49 c-10 -11 -19 -7 -22
10 -2 15 0 16 12 6 8 -6 12 -14 10 -16z"/>
<path d="M1994 896 c0 -12 6 -23 13 -23 9 0 10 4 3 12 -5 7 -7 14 -4 17 3 3 1
8 -3 11 -5 3 -9 -5 -9 -17z"/>
<path d="M2530 900 c0 -11 4 -20 9 -20 5 0 7 9 4 20 -3 11 -7 20 -9 20 -2 0
-4 -9 -4 -20z"/>
<path d="M2565 909 c-4 -6 -4 -13 -1 -16 3 -4 6 -1 6 6 0 7 5 9 12 5 7 -4 8
-3 4 4 -9 15 -13 15 -21 1z"/>
<path d="M720 899 c0 -9 -10 -23 -22 -32 -22 -14 -22 -15 -3 -14 14 2 20 -4
19 -19 -1 -14 5 -21 15 -20 12 1 16 -8 15 -36 0 -20 4 -34 8 -32 5 3 6 10 3
15 -4 5 -1 9 4 9 6 0 10 6 9 13 -2 7 9 12 29 11 17 0 30 4 27 8 -3 4 -1 8 5 8
5 0 12 -6 14 -12 4 -10 6 -10 6 0 1 6 6 12 12 12 5 0 8 -4 4 -9 -3 -6 5 -8 19
-5 21 3 24 1 21 -17 -3 -17 -2 -19 10 -9 8 7 12 16 9 21 -3 5 0 9 6 9 6 0 8 4
5 10 -4 6 6 8 25 6 17 -2 33 1 36 6 3 4 2 7 -3 6 -4 -1 -18 1 -30 6 -19 6 -21
11 -13 27 8 15 19 18 46 15 24 -3 34 -1 31 7 -2 7 -17 12 -33 12 -16 0 -34 4
-41 8 -7 4 -10 1 -9 -10 2 -10 -6 -23 -17 -29 -17 -10 -24 -8 -36 7 -24 28
-51 27 -68 -1 -15 -24 -15 -24 2 -5 13 15 16 16 12 4 -6 -17 10 -39 27 -39 6
0 5 5 -2 12 -7 7 -12 18 -12 26 0 12 3 12 17 1 14 -12 16 -12 8 0 -5 10 -4 12
4 7 9 -6 9 -11 1 -21 -8 -9 -8 -15 0 -20 5 -3 10 -1 10 6 0 7 7 4 15 -7 13
-16 14 -16 9 -1 -7 19 11 24 22 5 4 -7 3 -8 -5 -4 -6 4 -11 4 -10 -1 5 -29 -2
-36 -17 -17 -8 10 -13 14 -10 9 2 -6 -7 -11 -24 -10 -15 0 -27 3 -25 6 2 3 -2
6 -10 6 -8 0 -15 -4 -15 -9 0 -4 -5 -8 -11 -8 -5 0 -8 4 -4 9 3 5 0 13 -6 17
-7 4 -9 3 -6 -3 4 -7 -5 -10 -22 -9 -17 0 -34 9 -41 19 -9 15 -9 18 2 11 11
-6 11 -5 0 8 -8 10 -9 17 -3 20 7 2 7 8 1 18 -8 13 -10 13 -10 -1z m60 -84 c0
-2 -6 -8 -13 -14 -10 -8 -14 -7 -14 2 0 8 6 14 14 14 7 0 13 -1 13 -2z"/>
<path d="M749 908 c-5 -11 -5 -67 0 -62 6 5 7 10 10 35 1 8 6 8 16 -1 8 -7 15
-8 15 -4 0 8 -38 38 -41 32z"/>
<path d="M3102 898 c2 -6 12 -12 22 -14 14 -2 15 0 5 12 -14 17 -32 19 -27 2z"/>
<path d="M2415 891 c-3 -5 -2 -12 3 -15 5 -3 9 1 9 9 0 17 -3 19 -12 6z"/>
<path d="M1809 873 c7 -13 19 -21 31 -20 20 1 29 17 9 17 -5 0 -7 5 -3 12 4 7
3 8 -5 4 -6 -4 -9 -12 -6 -17 11 -16 -7 -10 -22 9 -13 15 -13 15 -4 -5z"/>
<path d="M2090 881 c0 -7 -4 -10 -8 -7 -5 3 -9 -2 -9 -10 0 -13 2 -13 16 0 8
9 12 19 8 22 -4 4 -7 2 -7 -5z"/>
<path d="M2119 888 c-6 -20 -6 -39 0 -42 4 -3 7 6 7 20 0 20 -4 32 -7 22z"/>
<path d="M795 870 c-3 -5 -11 -7 -18 -4 -7 2 -13 -4 -14 -16 -1 -16 2 -18 16
-10 10 5 21 6 25 3 4 -4 14 -8 22 -9 9 -1 13 1 9 4 -4 4 -12 7 -18 7 -7 0 -11
8 -9 18 3 19 -3 23 -13 7z"/>
<path d="M1926 868 c3 -5 10 -6 15 -3 13 9 11 12 -6 12 -8 0 -12 -4 -9 -9z"/>
<path d="M4173 866 c0 -17 34 -38 41 -27 3 5 -5 16 -17 24 -18 12 -24 12 -24
3z"/>
<path d="M145 858 c-11 -6 -28 -21 -37 -32 -12 -15 -17 -17 -18 -7 0 8 -3 12
-6 8 -4 -3 -15 4 -25 16 -10 12 -19 19 -20 15 -5 -26 -1 -35 23 -56 16 -13 26
-27 24 -31 -3 -4 5 -7 18 -7 19 0 22 5 21 33 -2 34 24 61 45 48 6 -3 7 1 4 9
-3 9 -7 16 -8 16 0 0 -10 -6 -21 -12z m-87 -33 c-3 -3 -9 2 -12 12 -6 14 -5
15 5 6 7 -7 10 -15 7 -18z m59 -20 c0 -8 -5 -11 -10 -8 -6 4 -8 0 -4 -10 9
-23 4 -21 -19 5 -17 19 -17 21 -2 15 10 -3 20 -2 23 3 9 14 12 12 12 -5z"/>
<path d="M1875 860 c-3 -6 1 -7 9 -4 18 7 21 14 7 14 -6 0 -13 -4 -16 -10z"/>
<path d="M3085 861 c-3 -6 -14 -8 -25 -6 -23 5 -25 1 -7 -14 11 -8 18 -6 32 9
10 11 15 20 12 20 -3 0 -8 -4 -12 -9z"/>
<path d="M1274 838 c-4 -7 -4 -10 1 -6 4 4 14 3 22 -4 11 -8 12 -7 7 6 -7 19
-20 21 -30 4z"/>
<path d="M1926 832 c-3 -5 1 -9 9 -9 8 0 12 4 9 9 -3 4 -7 8 -9 8 -2 0 -6 -4
-9 -8z"/>
<path d="M4165 829 c-4 -6 -13 -8 -20 -6 -7 3 -12 -2 -11 -14 1 -11 4 -19 9
-19 4 0 12 0 18 0 6 0 9 6 6 13 -3 8 1 14 9 14 7 0 11 -4 8 -9 -11 -17 7 -28
29 -17 22 12 22 12 3 -10 -16 -18 -17 -24 -6 -34 10 -10 12 -9 7 5 -4 10 -3
17 1 17 19 -3 33 2 27 10 -5 9 12 26 28 26 4 0 7 3 7 8 0 4 0 10 0 14 0 3 -8
-1 -18 -10 -21 -19 -50 -17 -67 6 -14 20 -21 21 -30 6z"/>
<path d="M1155 820 c-4 -6 -11 -7 -17 -4 -7 4 -8 2 -4 -5 6 -9 11 -9 22 0 14
11 18 19 10 19 -3 0 -8 -5 -11 -10z"/>
<path d="M990 774 c-25 -26 -40 -44 -33 -40 6 3 14 2 17 -3 9 -13 32 -8 56 14
11 10 20 14 20 10 0 -4 8 -1 18 8 10 10 21 15 24 12 3 -3 11 2 18 10 11 13 11
16 -1 13 -8 -2 -13 3 -11 10 2 10 -2 10 -19 2 -11 -6 -18 -17 -16 -24 4 -9 -3
-13 -16 -12 -12 0 -22 -4 -22 -11 0 -6 -3 -14 -7 -18 -5 -6 -3 25 2 33 2 1 3
6 4 11 0 5 5 13 10 18 5 4 6 3 2 -4 -3 -6 -2 -14 3 -17 10 -7 23 19 14 28 -11
11 -19 6 -63 -40z m104 18 c3 -5 -1 -9 -9 -9 -8 0 -12 4 -9 9 3 4 7 8 9 8 2 0
6 -4 9 -8z m-86 -22 c-7 -11 -16 -20 -21 -20 -4 0 -5 -5 -1 -12 5 -7 3 -8 -5
-3 -9 5 -7 13 10 31 27 29 33 31 17 4z"/>
<path d="M4009 790 c-6 -4 -4 -12 6 -20 12 -10 15 -10 15 0 0 10 3 10 14 1 12
-10 17 -9 24 6 9 16 6 18 -19 18 -16 1 -34 -2 -40 -5z"/>
<path d="M215 781 c-3 -5 -2 -12 3 -15 5 -3 9 1 9 9 0 17 -3 19 -12 6z"/>
<path d="M675 781 c6 -11 4 -13 -8 -8 -9 3 -16 3 -16 -1 1 -4 0 -9 -1 -12 -8
-21 -6 -37 6 -37 17 0 18 14 2 19 -7 3 -5 7 6 11 10 4 15 3 11 -3 -3 -6 -1
-10 4 -10 12 0 9 35 -4 47 -4 5 -4 2 0 -6z"/>
<path d="M3334 723 c0 -16 4 -20 15 -14 21 12 22 37 2 37 -11 0 -17 -8 -17
-23z"/>
<path d="M3546 732 c-3 -5 1 -9 9 -9 8 0 12 4 9 9 -3 4 -7 8 -9 8 -2 0 -6 -4
-9 -8z"/>
<path d="M3286 711 c-3 -5 2 -15 12 -22 15 -12 16 -12 5 2 -7 9 -10 19 -6 22
3 4 4 7 0 7 -3 0 -8 -4 -11 -9z"/>
</g>
</svg>
