<?xml version="1.0" standalone="no"?>
<!DOCTYPE svg PUBLIC "-//W3C//DTD SVG 20010904//EN"
 "http://www.w3.org/TR/2001/REC-SVG-20010904/DTD/svg10.dtd">
<svg version="1.0" xmlns="http://www.w3.org/2000/svg"
 width="770.000000pt" height="770.000000pt" viewBox="0 0 770.000000 770.000000"
 preserveAspectRatio="xMidYMid meet">
<metadata>
Created by potrace 1.14, written by Peter Selinger 2001-2017
</metadata>
<g transform="translate(0.000000,770.000000) scale(0.100000,-0.100000)"
fill="#000000" stroke="none">
<path d="M3708 6610 c-260 -47 -474 -245 -538 -496 -24 -94 -26 -244 -5 -329
8 -33 34 -98 57 -145 50 -103 159 -217 256 -268 l62 -33 -2 -202 -3 -202 -538
-8 c-499 -7 -541 -9 -575 -26 -20 -10 -45 -27 -54 -38 -26 -28 -58 -104 -58
-139 0 -75 49 -156 114 -185 38 -17 75 -19 566 -19 396 0 529 -3 538 -12 9 -9
12 -172 12 -674 l0 -662 -57 -43 c-315 -234 -511 -489 -575 -746 -30 -121 -30
-304 1 -418 29 -108 90 -233 163 -333 33 -46 58 -86 54 -89 -12 -12 -161 19
-230 47 -242 101 -503 355 -708 687 l-63 103 -47 0 c-29 0 -48 -5 -50 -13 -2
-9 -8 -8 -20 5 -17 17 -9 18 191 18 203 0 261 7 261 31 0 7 -34 47 -75 90
-166 174 -337 449 -384 616 -11 40 -22 77 -26 83 -24 38 -71 -22 -165 -212
-135 -273 -210 -584 -210 -873 0 -98 5 -115 34 -115 15 1 46 33 108 113 109
140 217 267 228 267 4 0 -5 -14 -21 -31 -16 -17 -29 -39 -29 -49 0 -31 67
-250 105 -345 168 -417 534 -852 945 -1121 52 -34 178 -108 280 -165 245 -135
314 -184 443 -310 l108 -106 72 75 c129 134 226 202 518 365 291 163 470 298
676 510 209 215 340 395 456 624 99 198 185 449 166 486 -22 39 6 9 131 -148
103 -128 137 -165 155 -165 17 0 25 7 29 28 9 40 -11 334 -29 432 -38 204
-123 439 -220 614 -93 167 -112 173 -149 46 -53 -180 -207 -427 -383 -611 -72
-75 -89 -111 -57 -123 9 -3 113 -6 231 -6 119 0 213 -3 210 -6 -4 -4 -34 -7
-68 -8 l-62 -1 -51 -88 c-117 -201 -337 -456 -501 -579 -129 -98 -296 -168
-400 -168 -162 0 -344 120 -416 274 -44 95 -48 167 -49 882 l0 630 137 90
c244 158 408 287 563 443 202 203 321 380 396 589 21 60 36 85 69 114 114 101
95 271 -37 339 -35 18 -74 20 -580 27 l-543 7 -3 202 -2 202 62 33 c136 72
261 224 312 379 56 167 44 336 -35 499 -78 160 -248 299 -419 345 -69 19 -210
27 -272 15z m235 -359 c108 -52 168 -148 175 -277 4 -72 1 -88 -23 -142 -54
-121 -165 -196 -290 -196 -311 -1 -431 416 -171 592 65 43 98 52 187 48 53 -2
89 -9 122 -25z m-76 -1336 c38 -11 62 -27 91 -60 92 -105 77 -247 -34 -332
-33 -25 -46 -28 -109 -27 -119 1 -190 56 -216 170 -25 107 43 222 148 250 62
17 61 17 120 -1z m1293 -395 c-8 -5 -47 -10 -87 -10 l-71 0 -56 -112 c-132
-269 -370 -511 -777 -792 -53 -36 -100 -66 -103 -66 -8 0 -8 928 0 957 l6 23
542 3 c297 1 546 3 551 4 6 2 3 -2 -5 -7z m-1630 -2599 c-20 -110 -96 -231
-182 -293 l-29 -20 -42 48 c-147 166 -217 331 -218 514 0 52 4 115 10 140 44
192 156 363 360 547 l106 96 3 -489 c1 -299 -2 -510 -8 -543z"/>
</g>
</svg>
